<?xml version="1.0" encoding="utf-8"?>
<!-- Generator: Adobe Illustrator 27.3.1, SVG Export Plug-In . SVG Version: 6.00 Build 0)  -->
<svg version="1.1" id="Layer_1" xmlns="http://www.w3.org/2000/svg" xmlns:xlink="http://www.w3.org/1999/xlink" x="0px" y="0px"
	 viewBox="0 0 1188 88" style="enable-background:new 0 0 1188 88;" xml:space="preserve">
<style type="text/css">
	.st0{fill:#141414;}
	.st1{fill:#FC3522;}
	.st2{fill:#585858;}
	.st3{fill:#FF0000;}
</style>
<g>
	<g>
		<path class="st0" d="M77.3,48.8c0,4.3,0,8.7,0,13c0,1.2,0.1,2.3-0.1,3.5c-0.4,3.6-1.7,6.8-4,9.8c0-0.4,0-0.6,0-0.8
			c0-8.5,0-17,0-25.5c0-0.5-0.1-1.1-0.1-1.6c0-0.4-0.3-0.3-0.5-0.4c-2.3-0.7-4.3-1.8-6.3-3.1c-1.7-1.1-3.2-2.4-4-4.2
			c-0.9-1.9-1-3.8-0.4-5.7c0.8-2.7,2.3-4.9,4.4-6.6c1.8-1.4,3.5-2.9,5.2-4.3c0.9-0.7,1.9-1.4,2.7-2.2c0.7-0.6,1.6-1,2.1-1.9
			c0.4-0.6,0.3-1.2-0.1-1.6c-0.4-0.4-1-0.4-1.6-0.1c-0.5,0.3-0.9,0.5-1.4,0.8c-0.7-1-1.7-1.7-2.6-2.6c0.5-0.6,1.1-1,1.8-1.4
			c0.8-0.4,1.5-0.9,2.4-1c1.4-0.2,2.7,0.1,3.8,0.9c1.5,1.1,2.3,2.5,2.1,4.3c-0.1,1.4-0.5,2.6-1.7,3.4c-1.1,0.8-2,1.7-3,2.6
			c-1.2,1.1-2.5,2.1-3.8,3.2c-1.1,0.9-2.2,1.9-3.3,2.8s-2,1.9-2.6,3.2c-0.6,1.4-1,2.8-0.6,4.2c0.3,0.9,0.9,1.7,1.6,2.3
			c1.4,1,2.9,1.8,4.6,2.3c1.2,0.3,1.2,0.3,1.2-0.9c0-1.3,0-2.7,0.3-4c0.5-2,1.5-3.8,3.2-5.2c1.8-1.5,3.7-2.5,6.1-2.7
			c2.8-0.3,5.3,0.6,7.5,2.2c2,1.4,2.8,3.5,3.8,5.6c0.7,1.5,1.4,3,2,4.5c1.8,4,3.6,8,5.3,12c0.7,1.5,1.4,2.9,2,4.4
			c0.1,0.2,0.3,0.4,0.1,0.6c-0.2,0.2-0.4,0-0.6-0.1c-1.6-0.7-3.2-1.3-4.8-1.8c-1-0.3-1.9-0.8-2.9-1.2c-2-0.7-3.9-1.4-5.8-2.2
			c-2.4-0.9-4.8-1.8-7.1-2.8c-1.5-0.6-3.1-1.1-4.6-1.8C77.9,48.5,77.4,48.1,77.3,48.8C77.3,48.7,77.3,48.7,77.3,48.8
			C77.3,48.7,77.3,48.7,77.3,48.8z M83.7,32.9c-1.3-0.1-2.5,0.3-3.6,1c-1.7,1.1-2.7,2.7-3,4.6c-0.2,1.2-0.1,2.4,0.4,3.5
			s1.1,2.1,2.1,2.9c1.6,1.2,3.6,1.7,5.4,2.4c1.3,0.5,2.7,1,4,1.6c1.3,0.6,2.6,1,3.9,1.5c1.1,0.4,2.3,0.8,3.4,1.2
			c0.1,0,0.2,0.2,0.3,0.1c0.1-0.1,0.1-0.2,0-0.3c-0.2-0.3-0.3-0.7-0.5-1c-1-2.3-2-4.6-3-6.8c-1-2-2-4.1-2.8-6.2
			C89.1,34.6,86.7,32.9,83.7,32.9z"/>
		<path class="st1" d="M70.7,15.1c0.9,0.9,1.9,1.6,2.6,2.6c-0.3,0.4-0.7,0.5-1.1,0.8c-2,1.3-3.9,2.7-5.9,3.9c-1.3,0.8-2.6,1.7-4,2.5
			c-1.3,0.8-2.5,1.6-3.7,2.5c-0.1,0.1-0.2,0.1-0.3,0.2s-0.2,0.1-0.4,0c-0.1-0.1,0-0.2,0.1-0.3c1.6-1.5,3-3.2,4.6-4.6
			c0.7-0.6,1.3-1.4,1.9-2c1.8-1.7,3.6-3.5,5.5-5.2C70.3,15.3,70.6,15.3,70.7,15.1z"/>
	</g>
	<g>
		<path class="st2" d="M124,70.6l5.9-19.4h9.7l-5.9,19.4H124z M130.3,48.7l-0.5-11.8h9.7l0.6,11.8H130.3z M132.3,34.3l-0.5-11.8h9.7
			l0.6,11.8H132.3z M150,30.2l0.9-6.2l-2.3-2.6h12.1l-1.4,8.8h5.9l-0.9,6h-5.9l-0.9,6.7h5.4l-3.5,24h-20.3l3.5-24h5.3l0.9-6.7h-5.6
			l0.9-6C144.2,30.2,150,30.2,150,30.2z M152,61.2l1.7-12.4h-3.5l-1.7,12.4H152z M168.4,22.8h19.5l-6.3,45.1c-0.2,0.8-0.5,1.5-1.2,2
			c-0.6,0.5-1.4,0.8-2.3,0.8h-7.7l3-3.5l2-13.8h-4.1l-2.7,17.2h-7.7L168.4,22.8z M172.1,48h4.1l1.1-7.4h-3.9L172.1,48z M174.2,35.5
			h3.8l1.1-7.3h-3.6L174.2,35.5z"/>
		<path class="st2" d="M200.2,61.7L189,63l0.9-6.5l11.2-1.4l2-14.4h-10.3l0.9-6.5h10.4l1.5-10.4l-2.3-2.6h15l-7,49.4H199L200.2,61.7
			z M248,38.2l-12.5,5.1l-2.6,18.3h10.4l2.9-2.6l-1.5,10.4h-25.4l6.3-45.7l-2.3-2.6h15l-2.1,14.4l12.5-5.1L248,38.2z"/>
		<path class="st3" d="M273,61.8l-3.8-4.4l-1.8,13.2h-10.6l2.3-16h-6.7L266.8,36h-11l0.8-6.2h21l-1.1,8.2l-5.4,7v0.5l3.8,4.4
			L273,61.8z M275.5,28.2h-11.2l-1.5-5.3l-1.5-1.7h12.5L275.5,28.2z M288.3,41.4l0.9-5.9h-9.8l0.9-6.7h4.5l-0.8-5l-2.4-2.4h11.6
			l0.9,7.4h3.9l3.8-7.6h10l-3.6,7.6h3.6l-0.9,6.7h-9.4l-0.9,5.9h8.2l-0.9,6.3h-8.2l-0.8,5.9h10.4l-0.9,6.3h-10.4l-1.5,10.6h-12.4
			l1.5-10.6h-11l0.9-6.3h11l0.8-5.9h-8.8l0.9-6.3H288.3z"/>
		<path class="st3" d="M325.5,43.4L321,66.8h-6.5l4.5-23.4H325.5z M349.1,29l-8.6,0.5l-0.8,4.8h9.2l-0.9,6.5h-9.2l-4.1,28.7h-11.6
			l4.1-28.7h-9.1l0.9-6.5h9.1l0.6-4.2l-8.6,0.3l0.9-6.5l28.9-1.4L349.1,29z M346.4,43.4l-2.1,23.4h-6.5l2-23.4H346.4z M369.7,68.2
			h-22.1l5.9-41.7l-2.3-2.6H376L369.7,68.2z M360.7,61.7l4.4-31.3h-2.7L358,61.7H360.7z"/>
		<path class="st3" d="M431.2,48l-3,21.6h-48.4l3-21.6H431.2z M404.6,26.4l0.5-2.6l-2.3-2.6h15.1l-0.8,5.1h19.5l-0.9,6.5h-19.5
			l-0.8,5.6h18.1l-0.9,6.5h-50.6l0.9-6.5h20l0.8-5.6h-21.3l0.9-6.5H404.6z M417,62.9l1.2-8H394l-1.2,8H417z"/>
		<path class="st3" d="M442.2,69.4l3.6-6.8l3.2-23.1h-2.6l0.9-6.5h14.4l-3.8,27.2l9.4,2.9h31.9l-0.9,6.5h-36.4l-6.8-2l-1.1,2h-11.8
			V69.4z M459.3,22.5l2.9,7.9h-10.4l-2.9-7.9C448.9,22.5,459.3,22.5,459.3,22.5z M495,45.9l2,14.4h-10.4l-0.3-1.8l-24.3,1.2l0.8-5.9
			L469,42h-5.9l0.9-6.5h36.4l-0.9,6.5H482l-5.9,11l9.5-0.5l-0.9-6.8H495V45.9z M499.7,22.6l-0.9,6.5h-31.3l0.9-6.5H499.7z"/>
		<path class="st2" d="M509.2,64.2l1.4-10l-5.3,1.5l1.1-7.3l5.3-1.5l1.5-11.5H508l0.9-6.5h5.1l0.8-5.9l-1.7-2h13.6l-1.1,7.9h3.8
			l-0.9,6.5h-3.8l-1.1,8.2l3.9-1.1l-1.1,7.3l-3.9,1.1L520.5,66c-0.3,1.4-0.9,2.4-1.8,3.3c-1.1,0.9-2.1,1.2-3.5,1.2H503L509.2,64.2z
			 M539.4,47.1l5.6,6.3l6.7-5.3l0.3-2.7h-22.4l0.8-6h10.3l0.8-5.6h-10.6l0.9-6.5h10.7l0.5-3.5l-1.7-2.6h14.5l-0.9,6h10.6l-0.9,6.5
			h-10.6l-0.8,5.6h10l-1.7,11.6l-11,8.6l9.8,10.9h-13l-4.4-5l-6.5,5h-13.2l14.1-11.2l-8.3-9.5l0.5-2.6h10V47.1z"/>
		<path class="st2" d="M566.8,69.4l10.7-29.9h13l-10.7,29.9H566.8z M593.4,37.6h-20.9l0.9-6.5h20.7l1.1-7.3l-2.3-2.6h15.6l-1.4,9.8
			H628l-0.9,6.5h-20.9l-4.7,33.1h-13L593.4,37.6z M611.1,69.4l-2.3-29.9h13l2.3,29.9H611.1z M611.5,29l-0.5-6.5h13l0.5,6.5H611.5z"
			/>
		<path class="st2" d="M641.6,70.6l3.2-3.8l1.8-13h-5.1l-3,16.8h-8.8l8-45.5l-1.2-2.3h23.4l-6,43.2c-0.3,1.2-0.8,2.4-1.7,3.2
			c-0.9,0.9-1.8,1.4-3,1.4H641.6z M642.8,47.1h4.8l0.8-5.9h-4.5L642.8,47.1z M645.1,34.7h4.4l0.8-5.4h-4.1L645.1,34.7z M655.4,70.6
			l6.7-47.8h29L689.6,34c-0.2,1.4-0.8,2.4-1.7,3.3c-0.9,0.9-2,1.4-3.2,1.4h-7.3l2.7-2.6l0.9-7.1h-10.4L669,40.9h19.5l-1.5,10
			l-5.6,7.9l5.4,11.8h-8.2l-2.3-4.8l-3.5,4.8H655.4z M668.1,47.1l-3.2,23.3l8.5-11.6l-4.7-10.3h8.2l1.5,3.3l2.4-3.3l0.2-1.2h-12.9
			V47.1z"/>
		<path class="st2" d="M693,70.6l14.4-14.2h-11l0.9-6.5h16.6l3.3-3.3h14.4l-3.3,3.3h22.4L748.4,66c-0.3,1.4-0.9,2.4-1.8,3.3
			c-1.1,0.9-2.1,1.2-3.5,1.2h-13.6l6.2-6.3l1.1-7.9h-15.1l-14.4,14.2H693z M734.2,45.9l-8.6-3l-9.5,3h-19.7l0.9-6.5h12.5l3-0.9
			l-4.7-1.7h-10.3l7.7-13.8l-1.5-1.8h15.6l-1.5,2.6h36.1l-1.5,10.4l-13.3,4.2l2.7,0.9h11.2l-0.9,6.5H734.2z M716.2,30.4l10.6,3.8
			l11.8-3.8H716.2z"/>
		<path class="st2" d="M775.1,24.5l1.4-1.7l-1.4-1.5h15.6l-2.6,3.2h28.1l-0.9,6.5h-32.2l-2.1,2.6h31.3L807.8,66
			c-0.3,1.4-0.9,2.4-1.8,3.3c-1.1,0.9-2.1,1.2-3.5,1.2h-12.9l5.3-5.6l0.6-4.1h-18.3l-1.4,9.5h-13l3.2-22.7H757l13.2-16.9h-9.4
			l0.9-6.5h13.5V24.5z M778.1,54.5h18.3l0.6-3.9h-18.3L778.1,54.5z M779.7,44.1H798l0.6-3.9h-18.3L779.7,44.1z"/>
		<path class="st2" d="M834.1,29.3l-5.9,41.1h-8.9l6.7-47.9H846l-0.9,6.7l-2.9,10.3h2.3l-0.3,5.9l-3.8,17.5h-9.5l0.8-5.9h2.1
			l2.6-11.8h-3l0.8-5.9l3-10.3h-3V29.3z M876.9,56.4L871,58l3.8,12.5h-10.3l-7.1-23.3H856L853.7,63l7-0.8l-0.9,6.5l-17.5,1.8
			l6.7-48.1h31.4l-3.5,24.8h-9.1l1.5,5.1l8.5-2.6L876.9,56.4z M868.4,41.4l0.6-3.9h-11.6l-0.6,3.9H868.4z M858,32.3h11.6l0.6-3.9
			h-11.6L858,32.3z"/>
		<path class="st2" d="M920.1,52.9l-0.6,4.8l18.4,12.7h-18.4l-8-5.7l-9.5,5.7h-18.9L905,57.6l1.1-4.7
			C906,52.9,920.1,52.9,920.1,52.9z M907.7,31.1l0.2-1.8h-18.3l0.8-5.1h18.1l0.2-0.9l-1.7-2h16.3l-0.5,2.9h19.5l-0.8,5.1h-19.4
			l-0.3,1.8h16.8l-0.8,5.1h-16.8l-0.3,2.1h20.7l-0.8,5.1h-54.4l0.8-5.1h19.7l0.3-2.1h-16.9l0.8-5.1H907.7z M889.1,45.9h48.8
			l-1.5,16.2h-6.8l-6-3.9l0.8-7h-22.8l-0.9,7.1l-6.7,3.8h-6.8L889.1,45.9z"/>
		<path class="st2" d="M965.5,29L965.5,29l-5.9,41.6h-12.4l5.4-39l-3.9,0.8l1.1-7.9l16.8-3.3L965.5,29z M975.7,62.3l1.8-13.2h-13.8
			l1.1-7.1h13.6l1.5-10.3l-11.2,1.2l1.1-7.9l34.5-3.9l-1.1,7.9l-10,1.2L991.6,42h13.2l-1.1,7.1h-13l-1.8,13.2h11l-0.9,7.1h-35.2
			l0.9-7.1C964.7,62.3,975.7,62.3,975.7,62.3z"/>
		<path class="st2" d="M1023.4,44.7h-13l15-20.6l-1.5-1.7h15.6L1023.4,44.7z M1050.3,70.6l-0.8-1.8l-36.3,1.8l1.1-7.7l19.5-27.4
			h12.4l-18.3,26.6l18.1-0.9l-4.5-10.1h11.8l8.9,19.4h-11.9V70.6z M1056.5,22.5l11.2,22.1h-13l-11.2-22.1H1056.5z"/>
		<path class="st2" d="M1111.8,42l-2.9,20.1h-34.8L1077,42H1111.8z M1113.2,64.1l5-34.9H1076l0.9-6.5h53.2l-6,43.1
			c-0.3,1.4-0.9,2.4-1.8,3.3c-1.1,0.9-2.1,1.4-3.5,1.4h-11.5L1113.2,64.1z M1114.4,32.3l-0.9,6.3h-37.3l0.9-6.3H1114.4z
			 M1098.5,56.1l1.2-8.3h-12.4l-1.2,8.3H1098.5z"/>
	</g>
</g>
</svg>
