<?xml version="1.0" encoding="utf-8"?>
<!-- Generator: Adobe Illustrator 27.3.1, SVG Export Plug-In . SVG Version: 6.00 Build 0)  -->
<svg version="1.1" id="Layer_1" xmlns="http://www.w3.org/2000/svg" xmlns:xlink="http://www.w3.org/1999/xlink" x="0px" y="0px"
	 viewBox="0 0 220 57" style="enable-background:new 0 0 220 57;" xml:space="preserve">
<style type="text/css">
	.st0{fill-rule:evenodd;clip-rule:evenodd;fill:#FFFFFF;}
</style>
<g id="Symbols">
	<g id="Group-3" transform="translate(0.000101, 0.000101)">
		<path id="Fill-1" class="st0" d="M94.9,22.7h9.7c0.9,0,1.5-0.7,1.4-1.6c-0.1-0.7-0.7-1.3-1.5-1.3h-12c-0.8,0-1.4,0.7-1.4,1.4v14.5
			c0,0.8,0.7,1.4,1.4,1.4h12.1c0.9,0,1.5-0.8,1.4-1.6c-0.1-0.7-0.7-1.3-1.5-1.3h-9.6c-0.5,0-0.9-0.4-0.9-0.9v-2.5
			c0-0.5,0.4-0.9,0.9-0.9h7.3c0.9,0,1.5-0.7,1.4-1.6c-0.1-0.7-0.7-1.3-1.5-1.3h-7.2c-0.5,0-0.9-0.4-0.9-0.9v-2.5
			C93.9,23.2,94.4,22.7,94.9,22.7 M78.2,22.7c1.6,0,3,0.6,4.1,1.7c0.3,0.3,0.6,0.4,1,0.4c0.8,0,1.4-0.7,1.4-1.4
			c0-0.4-0.2-0.8-0.6-1.2c-1.7-1.6-3.7-2.4-6-2.4c-2.4,0-4.4,0.8-6.2,2.6c-1.7,1.7-2.5,3.7-2.5,6.1s0.8,4.4,2.5,6.2
			c1.7,1.7,3.8,2.5,6.2,2.5c2.4,0,4.4-0.8,6.1-2.5c0.6-0.6,0.6-1.5,0-2.1c-0.6-0.6-1.5-0.6-2.1,0c-1.1,1.1-2.5,1.7-4.1,1.7
			c-1.6,0-3-0.6-4.1-1.7c-1.1-1.1-1.7-2.5-1.7-4.1s0.6-2.9,1.7-4.1C75.3,23.3,76.6,22.7,78.2,22.7 M125.4,34.3h-9.6
			c-0.5,0-0.9-0.4-0.9-0.9v-12c0-0.7-0.5-1.4-1.3-1.5c-0.9-0.1-1.6,0.6-1.6,1.4v14.5c0,0.8,0.7,1.4,1.4,1.4h12.1
			c0.9,0,1.5-0.8,1.4-1.6C126.8,34.8,126.1,34.3,125.4,34.3 M186.3,19.8h-14.4c-0.9,0-1.5,0.8-1.4,1.6c0.1,0.7,0.7,1.3,1.5,1.3h4.8
			c0.5,0,0.9,0.4,0.9,0.9v12.1c0,0.9,0.7,1.5,1.6,1.4c0.7-0.1,1.3-0.7,1.3-1.5v-12c0-0.5,0.4-0.9,0.9-0.9h4.8c0.9,0,1.5-0.7,1.4-1.6
			C187.7,20.4,187,19.8,186.3,19.8 M193.9,19.8c-0.8,0-1.4,0.7-1.4,1.4v14.5c0,0.8,0.7,1.4,1.4,1.4c0.8,0,1.4-0.7,1.4-1.4V21.3
			C195.4,20.5,194.7,19.8,193.9,19.8 M165,28.4c-1.3-0.8-3.1-1.3-5.4-1.3c-3,0-4.5-0.7-4.5-2.2c0-1.4,1.5-2.2,4.5-2.2
			c1.6,0,3.2,0.3,4.7,0.9c0.9,0.3,1.5,0,1.8-0.9c0.3-0.7-0.1-1.5-0.9-1.8c-1.7-0.7-3.5-1.1-5.6-1.1c-2.2,0-4,0.5-5.3,1.4
			c-1.4,0.9-2,2.1-2,3.7c0,1.7,0.7,2.9,2,3.8c1.3,0.8,3.1,1.3,5.4,1.3c3,0,4.5,0.7,4.5,2.2c0,1.4-1.5,2.2-4.5,2.2h-0.7
			c-1.5,0-3.1-0.3-4.7-0.9c-0.7-0.3-1.5,0.1-1.8,0.9c-0.3,0.7,0.1,1.6,0.9,1.9c1.7,0.7,3.5,1.1,5.6,1.1h0.7c2.2,0,4-0.5,5.3-1.4
			c1.4-0.9,2.1-2.1,2.1-3.7C167,30.5,166.3,29.2,165,28.4 M135.4,22.7h9.7c0.9,0,1.5-0.7,1.4-1.6c-0.1-0.7-0.7-1.3-1.5-1.3h-12
			c-0.8,0-1.4,0.7-1.4,1.4v14.5c0,0.8,0.7,1.4,1.4,1.4h12.1c0.9,0,1.5-0.8,1.4-1.6c-0.1-0.7-0.7-1.3-1.5-1.3h-9.6
			c-0.5,0-0.9-0.4-0.9-0.9v-2.5c0-0.5,0.4-0.9,0.9-0.9h7.3c0.9,0,1.5-0.7,1.4-1.6c-0.1-0.7-0.7-1.3-1.5-1.3h-7.2
			c-0.5,0-0.9-0.4-0.9-0.9v-2.5C134.5,23.2,134.9,22.7,135.4,22.7 M53.8,28.8c0,0.2-0.2,0.2-0.3,0.1c0-0.1-0.1-0.1-0.1-0.2
			c-0.1-0.1,0-0.3,0-0.4c0,0,0.1-0.1,0.1-0.1c0.1-0.1,0.3-0.1,0.3,0C53.8,28.4,53.8,28.6,53.8,28.8 M52.5,25.4
			c-0.2,0.3-0.7,0.4-0.9,0c0-0.1-0.1-0.1-0.1-0.2c-0.8-1.2-1.7-2.3-2.6-3.5c-0.2-0.3,0-0.7,0.3-0.7h0c2.3,0,3.5,0.6,3.9,1.3
			C53.4,23,53.3,24,52.5,25.4 M52,37.5c-0.1,0.3-0.3,0.6-0.4,0.9c0,0,0,0.1-0.1,0.1c-0.8,1.6-2.3,2.9-4.2,3.8
			c-0.4,0.2-0.9-0.2-0.8-0.6c0.6-2.3,1.1-4.7,1.4-7.3c0.1-0.5,0.3-0.9,0.7-1.2c0.8-0.7,1.5-1.4,2.2-2l0,0c0.3-0.3,0.9-0.2,1,0.3
			C52.6,33.6,52.6,35.7,52,37.5 M46.8,45.6c-0.2,0.2-0.4,0.4-0.6,0.6c-0.4,0.4-0.7,0.7-1.1,1c-0.2,0.2-0.6-0.1-0.5-0.3
			c0-0.1,0.1-0.2,0.1-0.2c0.2-0.3,0.3-0.7,0.4-1c0-0.1,0.1-0.1,0.2-0.2c0.4-0.1,0.7-0.2,1.1-0.3C46.8,45.1,47,45.4,46.8,45.6
			 M43,43.6c-0.8,0.1-1.6,0.2-2.4,0.2c-2.1,0.1-4.2-0.1-6.5-0.5c-0.3-0.1-0.3-0.4-0.1-0.5c0.5-0.2,1-0.5,1.5-0.8
			c3.4-1.8,6.6-3.8,9.4-5.8c0.2-0.2,0.5,0,0.5,0.3C45,38.8,44.5,41,43.8,43C43.7,43.3,43.4,43.5,43,43.6 M42.3,46.7
			c-1.8,3.6-4.1,5.6-6.3,5.6c-2.4,0-4.8-2.5-6.5-6.8l0,0c-0.1-0.3,0-0.6,0.3-0.7c0,0,0,0,0.1,0c0.1-0.1,0.2-0.1,0.4,0
			c3.3,0.9,6.5,1.4,9.6,1.4c0.3,0,0.7,0,1,0c0.4,0,0.8,0,1.1-0.1C42.2,46,42.4,46.4,42.3,46.7 M31.4,53.6c-1.1,0.1-2.2,0.2-3.3,0.2
			c-5,0-9.8-1.4-13.9-4.1c-0.3-0.2-0.2-0.6,0.2-0.6c0.1,0,0.1,0,0.2,0c1-0.1,2.2-0.2,3.4-0.5c2.6-0.5,5.6-1.4,8.6-2.5
			c0.3-0.1,0.6,0,0.7,0.3c0,0,0,0,0,0c1.2,2.9,2.7,5.1,4.3,6.5C31.9,53.1,31.7,53.5,31.4,53.6 M16.5,35.5c2.3-1.8,4.9-3.7,7.8-5.4
			c0.1,3.7,0.5,7.3,1.2,10.5c-1.1-0.5-2.2-1-3.2-1.5C20.2,38.1,18.3,36.8,16.5,35.5 M9.4,45.5c-0.5-1,0.2-3.4,3.7-7l0,0
			c0.4-0.4,0.3-1-0.1-1.3c-0.1-0.1-0.3-0.2-0.4-0.3c-0.4-0.3-0.9-0.3-1.2,0.1c-0.1,0.1-0.1,0.1-0.1,0.1c-1.8,1.8-3,3.5-3.7,5
			c-0.2,0.4-0.8,0.5-1.1,0.1c-2.8-4.2-4.2-9-4.2-14.2c0-1.8,0.2-3.6,0.6-5.4c0.1-0.3,0.4-0.3,0.5,0c0.5,1.8,1.4,3.6,2.6,5.4
			c1.6,2.5,3.7,4.9,6.3,7.1c0.9,0.7,1.8,1.5,2.7,2.2c1.9,1.4,4,2.7,6.2,3.9c1,0.5,1.9,1,2.9,1.4c0.5,0.2,1.2,0.3,1.7,0
			c0.5-0.2,0.9-0.4,1.4-0.6c0.5-0.2,0.8-0.8,0.7-1.3c0-0.1,0-0.1,0-0.2c-0.8-3.3-1.2-6.9-1.3-10.8l0,0c0,0,0-0.1,0-0.1
			c0-0.2,0-0.4,0-0.6c0-0.1,0-0.2,0-0.2c0,0,0-0.1,0-0.1c0,0,0,0,0,0c0-0.2,0-0.5,0-0.7c0-0.7,0-1.3,0.1-2c0,0,0,0,0,0
			c0.2-4.6,1-9,2.3-12.7c0.1-0.3-0.1-0.7-0.4-0.8c-0.3-0.1-0.7-0.2-1-0.3c-0.3-0.1-0.7,0.1-0.8,0.4c-1.4,4-2.2,8.7-2.4,13.7
			c0,0.6-0.4,1.2-0.9,1.5c-3,1.8-5.7,3.6-8,5.5c-0.5,0.4-1.2,0.4-1.7,0c-2.4-2-4.3-4.3-5.8-6.6C5,22.3,4.3,18,6,14.8c0,0,0,0,0,0
			c0.2-0.4,0.4-0.7,0.7-1c1.9-2.5,5.5-4,10.3-4.2c0.3,0,0.6,0,0.9,0c2.9,0,6,0.5,9.2,1.4l0,0c0.1,0,0.1,0,0.2,0.1c0.1,0,0.1,0,0.2,0
			c0,0,0,0,0,0c0.7,0.2,1.5,0.5,2.2,0.7c0,0,0,0,0,0c0,0,0,0,0.1,0c0.2,0.1,0.4,0.1,0.6,0.2c0.1,0,0.1,0,0.2,0.1
			c0.1,0,0.1,0,0.2,0.1l0,0c1.6,0.6,3.1,1.3,4.6,2.1c3,1.5,5.7,3.3,8,5.3c-4.5,1-9.7,3-15,5.7c-0.2,0.1-0.4,0.4-0.4,0.6
			c0,0.3,0,1-0.1,1.5c0,0.3,0.3,0.5,0.6,0.4l0,0c5.2-2.7,10.4-4.8,14.9-5.9c0.8-0.2,1.4-1,1.3-1.9c-0.1-0.6-0.2-1.2-0.3-1.8
			c-0.1-0.7-0.5-1.4-1.1-1.8c-2.1-1.6-4.4-3.1-6.9-4.3c-1.7-0.9-3.4-1.6-5-2.3c-0.4-0.1-0.5-0.6-0.3-0.9c1.7-3.1,3.8-4.9,5.8-4.9
			c0,0,0,0,0.1,0c2.4,0,4.8,2.5,6.5,6.8c0.9,2.2,1.6,4.7,2.1,7.4c0,0,0,0,0,0c0.2,1.2,0.4,2.4,0.5,3.6c0,0,0,0,0,0c0,0,0,0,0,0
			c0.2,2.1,0.3,4.2,0.2,6.4c0,1.4-0.1,2.8-0.2,4.1c-3.2,2.6-7.1,5.1-11.5,7.4c-1.4,0.8-2.8,1.5-4.3,2.1c0,0,0,0-0.1,0
			c-0.1,0-0.2,0.1-0.3,0.1c0,0,0,0,0,0c-1.2,0.5-2.3,1-3.5,1.5c0,0,0,0,0,0c-0.1,0-0.1,0-0.2,0.1c-0.1,0-0.2,0.1-0.2,0.1
			c-0.2,0.1-0.4,0.1-0.6,0.2c-0.1,0-0.1,0-0.2,0.1c-0.2,0.1-0.5,0.2-0.7,0.3c0,0-0.1,0-0.1,0c0,0,0,0,0,0c-2.4,0.9-4.8,1.5-6.9,1.9
			C12.4,47.3,10,46.6,9.4,45.5 M13.1,7.1c4.3-3.1,9.5-4.8,14.9-4.8c1.4,0,2.8,0.1,4.2,0.3c0.4,0.1,0.5,0.5,0.2,0.8
			c-1.3,1.1-2.6,2.6-3.7,4.6c-0.3,0.5-0.8,0.7-1.4,0.6c-3.7-1-7.3-1.5-10.6-1.4c-1.2,0-2.4,0.2-3.5,0.4C13,7.7,12.9,7.3,13.1,7.1
			 M48.4,25.8c0-0.3,0.4-0.4,0.5-0.2c0.2,0.3,0.4,0.6,0.6,0.9c0.3,0.4,0.5,0.8,0.7,1.2c0.1,0.2,0.1,0.5-0.1,0.8
			c-0.3,0.3-0.6,0.7-1,1c-0.1,0.1-0.3,0.3-0.4,0.4c-0.2,0.2-0.4,0-0.4-0.2c0-0.4,0-0.8,0-1.3C48.5,27.6,48.5,26.7,48.4,25.8
			 M45.8,9.4c0.2,0.2,0.3,0.3,0.5,0.5c2.5,2.5,4.4,5.4,5.7,8.5c0.1,0.3-0.1,0.7-0.5,0.6c-0.7-0.1-1.6-0.2-2.5-0.2
			c-0.6,0-1.2-0.4-1.3-1.1c-0.5-2.8-1.2-5.4-2.2-7.7c-0.1-0.1-0.1-0.3-0.2-0.4C45.2,9.4,45.6,9.2,45.8,9.4 M55.5,22.2
			c-1.1-5.3-3.7-10.1-7.6-14C42.6,2.9,35.5,0,28.1,0C20.6,0,13.5,2.9,8.2,8.2c-1.3,1.3-2.4,2.7-3.4,4.2c-0.3,0.4-0.6,0.8-0.8,1.3
			c-2.6,4.3-4,9.3-4,14.4c0,7.5,2.9,14.5,8.2,19.8s12.3,8.2,19.8,8.2c7.5,0,14.5-2.9,19.8-8.2c2.5-2.5,4.5-5.4,5.9-8.5
			c0.2-0.3,0.3-0.7,0.4-1.1c1.3-3.2,1.9-6.7,1.9-10.2C56.1,26.1,55.9,24.2,55.5,22.2C55.5,22.3,55.5,22.2,55.5,22.2 M212.6,30.7
			h-5.3c-0.5,0-0.8-0.5-0.6-1l2.7-4.6c0.2-0.4,0.9-0.4,1.1,0l2.6,4.6C213.4,30.2,213.1,30.7,212.6,30.7 M219.6,35.1l-8.4-14.5
			c-0.6-0.9-1.9-0.9-2.5,0l-8.4,14.5c-0.1,0.2-0.2,0.4-0.2,0.6c-0.1,0.8,0.6,1.6,1.4,1.6c0.6,0,1-0.3,1.4-0.9l1.3-2.2
			c0.2-0.3,0.5-0.5,0.8-0.5h9.8c0.3,0,0.7,0.2,0.8,0.5l1.3,2.2c0.3,0.6,0.8,0.9,1.3,0.9c0.8,0,1.5-0.6,1.5-1.4
			C219.8,35.5,219.7,35.3,219.6,35.1"/>
	</g>
</g>
</svg>
