<?xml version="1.0" encoding="utf-8"?>
<!-- Generator: Adobe Illustrator 27.3.1, SVG Export Plug-In . SVG Version: 6.00 Build 0)  -->
<svg version="1.1" id="Layer_1" xmlns="http://www.w3.org/2000/svg" xmlns:xlink="http://www.w3.org/1999/xlink" x="0px" y="0px"
	 viewBox="0 0 230.62 39.83" style="enable-background:new 0 0 230.62 39.83;" xml:space="preserve">
<style type="text/css">
	.st0{clip-path:url(#SVGID_00000070093262274400892480000009506570754691419558_);fill:#F1E1D4;}
	.st1{fill:#F1E1D4;}
</style>
<g>
	<defs>
		<rect id="SVGID_1_" x="-0.38" width="39.12" height="39"/>
	</defs>
	<clipPath id="SVGID_00000045593831014767217290000013557538358778601615_">
		<use xlink:href="#SVGID_1_"  style="overflow:visible;"/>
	</clipPath>
	<path style="clip-path:url(#SVGID_00000045593831014767217290000013557538358778601615_);fill:#F1E1D4;" d="M1.74,24.32
		c-0.88-0.87-1.46-1.88-1.76-3.02c-0.29-1.15-0.29-2.3,0-3.45c0.3-1.16,0.88-2.17,1.75-3.03c0.88-0.88,1.9-1.46,3.05-1.76
		c1.15-0.29,2.31-0.29,3.46,0s2.17,0.87,3.04,1.75l2.17,2.16l3.21-3.2l-2.17-2.16c-0.88-0.87-1.46-1.88-1.76-3.02
		c-0.29-1.15-0.3-2.3-0.01-3.44C13.02,4,13.6,2.98,14.49,2.1c0.88-0.87,1.89-1.45,3.04-1.75c1.15-0.29,2.3-0.29,3.45,0.01
		c1.15,0.29,2.17,0.87,3.04,1.75c0.88,0.87,1.46,1.88,1.75,3.03c0.3,1.14,0.3,2.29,0.01,3.44c-0.28,1.16-0.86,2.17-1.74,3.04
		l-2.16,2.15l3.2,3.19l2.16-2.15c0.88-0.87,1.89-1.46,3.03-1.76c1.15-0.29,2.3-0.29,3.45,0.01c1.15,0.29,2.17,0.88,3.05,1.76
		c0.88,0.87,1.46,1.88,1.75,3.03c0.3,1.14,0.3,2.29,0,3.43c-0.29,1.15-0.88,2.16-1.75,3.03c-0.88,0.88-1.9,1.46-3.05,1.76
		c-1.15,0.28-2.3,0.28-3.45-0.01c-1.14-0.29-2.15-0.87-3.02-1.75l-2.16-2.15l-3.21,3.2l2.16,2.15c0.88,0.87,1.46,1.88,1.74,3.02
		c0.29,1.15,0.29,2.3,0,3.45c-0.29,1.15-0.88,2.16-1.76,3.04c-0.87,0.87-1.88,1.45-3.04,1.75c-1.15,0.29-2.31,0.29-3.46,0
		c-1.14-0.29-2.15-0.87-3.02-1.75c-0.88-0.88-1.47-1.89-1.77-3.03c-0.29-1.15-0.29-2.3,0-3.45c0.31-1.15,0.89-2.16,1.76-3.02
		l2.18-2.17l-3.2-3.19l-2.18,2.17c-0.87,0.87-1.89,1.44-3.05,1.73c-1.15,0.29-2.31,0.29-3.46,0C3.63,25.78,2.62,25.19,1.74,24.32z
		 M4.35,21.72c0.4,0.39,0.85,0.66,1.38,0.79c0.53,0.14,1.05,0.14,1.57,0.01s0.98-0.39,1.38-0.79l2.18-2.17L8.68,17.4
		c-0.4-0.39-0.86-0.65-1.39-0.78c-0.52-0.13-1.04-0.13-1.56,0s-0.98,0.4-1.39,0.8c-0.4,0.39-0.66,0.85-0.8,1.36
		c-0.13,0.52-0.13,1.04,0,1.56C3.69,20.87,3.95,21.33,4.35,21.72z M17.1,9.01l2.17,2.16l2.16-2.15c0.4-0.4,0.67-0.86,0.79-1.37
		c0.13-0.52,0.13-1.04-0.01-1.57c-0.13-0.52-0.4-0.98-0.79-1.37c-0.4-0.39-0.85-0.66-1.38-0.79c-0.52-0.13-1.04-0.13-1.56,0
		c-0.51,0.12-0.97,0.39-1.38,0.79c-0.4,0.39-0.67,0.85-0.81,1.37c-0.13,0.52-0.13,1.04,0,1.56C16.43,8.16,16.7,8.62,17.1,9.01z
		 M27.09,19.57l2.16,2.15c0.4,0.39,0.85,0.66,1.36,0.8c0.52,0.13,1.65,0.13,2.16-0.01c0.52-0.13,0.98-0.4,1.39-0.8
		c0.4-0.4,0.67-0.86,0.79-1.37c0.14-0.51,0.14-1.03,0.01-1.55s-0.4-0.98-0.79-1.37c-0.4-0.4-0.86-0.67-1.39-0.8
		c-0.52-0.13-1.65-0.13-2.17,0c-0.51,0.13-0.96,0.4-1.36,0.8L27.09,19.57z M17.1,34.44c0.4,0.39,0.85,0.66,1.38,0.79
		c0.52,0.13,1.04,0.13,1.55-0.01c0.52-0.13,0.98-0.39,1.38-0.79s0.67-0.86,0.8-1.38c0.14-0.51,0.14-1.03,0.01-1.55
		c-0.12-0.53-0.39-0.99-0.78-1.38l-2.16-2.15l-2.18,2.17c-0.4,0.39-0.66,0.85-0.8,1.36c-0.13,0.52-0.13,1.04,0,1.56
		C16.43,33.58,16.7,34.04,17.1,34.44z M16.07,19.57l3.2,3.19l3.21-3.2l-3.2-3.19L16.07,19.57z"/>
</g>
<path class="st1" d="M62.9,14.91c-0.89-2.66-3.22-5.14-6.86-5.14c-4.86,0-8.38,4.32-8.38,10.38s3.48,10.42,8.38,10.42
	c3.04,0,5.71-1.96,6.86-4.69v4.25h4.6V2.05h-4.6V14.91z M57.71,27.32c-3.45,0-5.34-2.77-5.34-7.17c0-4.36,1.89-7.13,5.34-7.13
	s5.34,2.77,5.34,7.13C63.05,24.55,61.16,27.32,57.71,27.32z"/>
<path class="st1" d="M79.19,27.32l-6.08-17.11h-4.67l6.41,17.77h4.11l-2.93,9.38h4.78l8.56-27.16h-4.86L79.19,27.32z"/>
<path class="st1" d="M113.74,9.77c-3.56,0-5.49,2.48-6.3,4.91c-0.74-2.55-2.74-4.91-6.19-4.91c-3.37,0-5.19,2.14-6.08,4.54v-4.1
	h-4.6v19.91h4.63V18.57c0-3.81,1.33-5.51,3.97-5.51c2.6,0,3.93,1.7,3.93,5.43v11.64h4.63V18.57c0-3.81,1.33-5.51,3.97-5.51
	c2.59,0,3.93,1.7,3.93,5.43v11.64h4.63V17.61C120.26,13.06,118.18,9.77,113.74,9.77z"/>
<path class="st1" d="M141.92,20.05c0-6.21-3.86-10.27-9.75-10.27c-6,0-9.82,4.29-9.82,10.38c0,6.06,3.71,10.42,9.82,10.42
	c4.67,0,8.04-2.07,9.3-6.32h-4.71c-0.7,1.92-2,3.07-4.56,3.07c-2.82,0-4.78-1.96-5.15-5.8h14.75
	C141.89,21.01,141.92,20.49,141.92,20.05z M132.18,13.03c2.85,0,4.78,2.11,5,5.28H127.1C127.58,14.73,129.47,13.03,132.18,13.03z"/>
<path class="st1" d="M155.1,9.77c-3.45,0-5.41,2.07-6.34,4.51v-4.06h-4.6v19.91h4.63V18.57c0-3.81,1.63-5.51,4.23-5.51
	c2.63,0,4.23,1.66,4.23,5.43v11.64h4.63V17.61C161.88,13.17,159.69,9.77,155.1,9.77z"/>
<path class="st1" d="M172.6,30.58c5.12,0,8.86-2.29,8.86-6.24c0-3.18-1.82-5.02-6-5.91l-3.15-0.67c-2.41-0.52-3.63-1-3.63-2.36
	c0-1.51,1.82-2.36,3.82-2.36c1.78,0,3.41,0.81,3.93,2.29h4.67c-0.85-3.69-4.41-5.54-8.64-5.54c-4.56,0-8.26,2.33-8.26,5.99
	c0,3.03,2.22,4.69,5.86,5.47l3.15,0.7c2.89,0.59,3.82,1.33,3.82,2.84c0,1.55-1.48,2.55-4.3,2.55c-1.89,0-3.82-0.7-4.3-3.1h-4.67
	C164.33,28.43,167.93,30.58,172.6,30.58z"/>
<path class="st1" d="M188.38,7.15v-5.1h-4.86v5.1H188.38z M188.27,30.13V10.22h-4.63v19.91C183.64,30.13,188.27,30.13,188.27,30.13z
	"/>
<path class="st1" d="M200.6,30.58c6.19,0,10.08-4.25,10.08-10.42c0-6.13-3.89-10.38-10.08-10.38c-6.15,0-10.04,4.25-10.04,10.38
	C190.55,26.33,194.44,30.58,200.6,30.58z M200.6,27.32c-3.41,0-5.34-2.77-5.34-7.17c0-4.36,1.93-7.13,5.34-7.13
	c3.45,0,5.34,2.77,5.34,7.13C205.93,24.55,204.04,27.32,200.6,27.32z"/>
<path class="st1" d="M223.84,9.77c-3.45,0-5.41,2.07-6.34,4.51v-4.06h-4.6v19.91h4.63V18.57c0-3.81,1.63-5.51,4.23-5.51
	c2.63,0,4.23,1.66,4.23,5.43v11.64h4.63V17.61C230.62,13.17,228.44,9.77,223.84,9.77z"/>
</svg>
