<?xml version="1.0" encoding="utf-8"?>
<!-- Generator: Adobe Illustrator 27.3.1, SVG Export Plug-In . SVG Version: 6.00 Build 0)  -->
<svg version="1.1" id="Layer_1" xmlns="http://www.w3.org/2000/svg" xmlns:xlink="http://www.w3.org/1999/xlink" x="0px" y="0px"
	 viewBox="0 0 105.63 24" style="enable-background:new 0 0 105.63 24;" xml:space="preserve">
<style type="text/css">
	.st0{fill:#FFFFFF;filter:url(#Adobe_OpacityMaskFilter);}
	.st1{mask:url(#svg-1759434998_1753_mask0_178_6697_00000027602996723522755980000006224709719177052305_);}
	.st2{fill:#FFFFFF;}
	.st3{fill:#00F58C;}
</style>
<defs>
	<filter id="Adobe_OpacityMaskFilter" filterUnits="userSpaceOnUse" x="0" y="0" width="105.63" height="24">
		<feColorMatrix  type="matrix" values="1 0 0 0 0  0 1 0 0 0  0 0 1 0 0  0 0 0 1 0"/>
	</filter>
</defs>
<mask maskUnits="userSpaceOnUse" x="0" y="0" width="105.63" height="24" id="svg-1759434998_1753_mask0_178_6697_00000027602996723522755980000006224709719177052305_">
	<path class="st0" d="M105.64,0H0v24h105.64V0z"/>
</mask>
<g class="st1">
	<path class="st2" d="M48.93,22.24V0H52v20.91h12L63.93,0.02L67.07,0v22.24c0,0.97-0.78,1.76-1.75,1.76H50.69
		C49.72,24,48.93,23.21,48.93,22.24L48.93,22.24z"/>
	<path class="st2" d="M90.2,22.24V0h3.07v20.91h12.37V24H91.95C90.98,24,90.2,23.21,90.2,22.24z"/>
	<path class="st2" d="M30.02,24h3.07V13.58h11.56v-3.09H33.08v-7.4h11.37c0.34,0,0.65-0.2,0.79-0.5L46.47,0h-14.7
		c-0.97,0-1.75,0.79-1.75,1.76V24z"/>
	<path class="st2" d="M70.41,1.76c0-0.97,0.78-1.76,1.75-1.76h14.7l-1.22,2.58c-0.14,0.31-0.45,0.5-0.79,0.5H73.47v7.4h11.56v3.09
		H73.47v7.34h13.38V24h-14.7c-0.97,0-1.75-0.79-1.75-1.76V1.76z"/>
	<path class="st3" d="M1.59,0C0.71,0,0,0.71,0,1.6V24h19.76c0.67,0,1.31-0.27,1.78-0.74l1.6-1.61c0.47-0.48,0.74-1.12,0.74-1.79V0
		H1.59z M15.59,3.09l-7.77,7.81c-0.19,0.19-0.45,0.3-0.73,0.3c-0.4,0-0.76-0.23-0.93-0.59L3.16,4.21C2.91,3.69,3.29,3.09,3.87,3.09
		H15.59z M3.07,20.91v-7.59c0-0.4,0.33-0.73,0.73-0.73h7.56L3.07,20.91z M11.98,11.19h-2.5L17,3.63c0.35-0.35,0.81-0.54,1.3-0.54
		h2.5l-7.53,7.57C12.94,11,12.47,11.19,11.98,11.19z"/>
</g>
</svg>
