<?xml version="1.0" encoding="utf-8"?>
<!-- Generator: Adobe Illustrator 27.3.1, SVG Export Plug-In . SVG Version: 6.00 Build 0)  -->
<svg version="1.1" id="Layer_1" xmlns="http://www.w3.org/2000/svg" xmlns:xlink="http://www.w3.org/1999/xlink" x="0px" y="0px"
	 viewBox="0 0 364.84 97.1" style="enable-background:new 0 0 364.84 97.1;" xml:space="preserve">
<style type="text/css">
	.st0{clip-path:url(#SVGID_00000035504866939832688000000002189094639572263305_);}
	.st1{fill:#FFFFFF;}
	.st2{fill:#FEA421;}
	.st3{fill:#FFC337;}
</style>
<g>
	<defs>
		<rect id="SVGID_1_" x="0.84" width="364" height="97"/>
	</defs>
	<clipPath id="SVGID_00000158016401639448956740000008930495373560689314_">
		<use xlink:href="#SVGID_1_"  style="overflow:visible;"/>
	</clipPath>
	<g style="clip-path:url(#SVGID_00000158016401639448956740000008930495373560689314_);">
		<path class="st1" d="M216.86,86.43c-2.61,0-4.45-0.38-6.37-1.07c-1.69-0.61-3.69-2-3.69-4.84c0-2.84,2.23-4.76,4.61-4.76
			c0.92,0,1.46,0.15,1.92,0.31c1,0.31,1.61,0.46,2.46,0.46c2.07,0,3.07-0.38,4.15-2.46l0.38-0.92l-14.06-32.57
			c-0.31-0.77-0.61-1.92-0.61-2.69c0-3.3,2.53-5.61,5.76-5.61c2.92,0,4.61,1.61,5.61,4.38l8.91,23.96l8.6-23.89
			c0.92-2.46,2.61-4.45,5.61-4.45c3,0,5.53,2.3,5.53,5.38c0,0.92-0.31,2.23-0.54,2.76l-14.36,34.49
			C227.3,83.28,223.85,86.43,216.86,86.43z M343.19,74.83c-7.68,0-13.44-2.38-17.82-6.14c-1.08-0.92-2-2.53-2-4.22
			c0-3.07,2.61-5.68,5.68-5.68c1.69,0,2.84,0.69,3.76,1.46c3.07,2.61,6.3,3.99,10.52,3.99c4.45,0,7.6-2.53,7.6-6.53v-0.15
			c0-4.38-3.92-6.83-10.52-6.83h-1.84c-2.77,0-5.07-2.3-5.07-5.07c0-1.61,0.69-2.99,2.54-4.84l10.45-10.52h-16.51
			c-2.77,0-5.07-2.31-5.07-5.07s2.3-5.07,5.07-5.07h26.19c3.46,0,5.99,2,5.99,5.22c0,2.92-1.38,4.53-3.53,6.6L348.1,42.04
			c7.3,1.23,14.44,5.07,14.44,15.05v0.15C362.54,67.38,355.17,74.83,343.19,74.83L343.19,74.83z M295.37,68.53V38.12
			c0-3.22,2.61-5.84,5.83-5.84c0,0,0,0,0.01,0c3.22,0,5.84,2.61,5.84,5.83c0,0,0,0,0,0.01v1.84c1.69-3.99,4.45-7.68,7.91-7.68
			c3.61,0,5.68,2.38,5.68,5.68c0,3.07-2,4.92-4.38,5.45c-5.91,1.38-9.22,5.91-9.22,14.21v10.91c0,3.22-2.61,5.84-5.83,5.84
			c0,0,0,0-0.01,0C297.99,74.37,295.37,71.76,295.37,68.53C295.37,68.54,295.37,68.53,295.37,68.53z M260.66,50.1h17.59
			c-0.69-5.22-3.76-8.76-8.68-8.76C264.74,41.34,261.59,44.8,260.66,50.1L260.66,50.1z M285.01,69.84
			c-3.61,3.07-8.3,4.99-14.29,4.99c-12.37,0-21.51-8.68-21.51-21.28V53.4c0-11.75,8.37-21.43,20.35-21.43
			c13.75,0,19.82,11.29,19.82,19.82c0,3.38-2.38,5.61-5.45,5.61h-23.12c1.15,5.3,4.84,8.06,10.06,8.06c3.23,0,5.91-1,8.3-2.76
			c0.85-0.61,1.61-0.92,2.84-0.92c2.61,0,4.53,2,4.53,4.61C286.55,67.92,285.86,69.07,285.01,69.84L285.01,69.84z M187.32,36.71
			c1.29,1.35,2.14,1.77,2.4,0.59c0.51-2.61,2.14-3.87,4.8-3.87h0.17c2.83,0,4.46,1.51,4.46,4.38v31.22c0,2.78-1.54,4.29-4.37,4.29
			h-0.26c-2.74,0-4.29-1.01-4.54-2.94c-0.26-1.68-1.29-1.77-2.57-0.5c-2.66,2.61-6.6,4.63-11.82,4.63
			c-10.71,0-18.68-8.67-18.68-20.45c0-12.54,8.23-21.79,19.28-21.79C180.98,32.25,184.75,34.1,187.32,36.71L187.32,36.71z
			 M178.5,65.15c6.32-0.77,9.85-6.14,9.85-11.78c0-5.72-3-11.7-9.94-11.7c-6.14,0-11.77,2.56-11.77,11.7
			C166.64,62.51,172.18,65.93,178.5,65.15L178.5,65.15z M136.84,68.96V23.65c0-3.22,2.61-5.84,5.83-5.84c0,0,0,0,0.01,0
			c3.22,0,5.84,2.61,5.84,5.83c0,0,0,0,0,0.01v45.31c0,3.23-2.45,5.55-5.68,5.55S136.84,72.19,136.84,68.96L136.84,68.96z"/>
		<path class="st2" d="M31.59,5.27l11.58-1.66c19.19-2.76,36.98,10.56,39.74,29.75L86,54.87c2.76,19.19-10.56,36.98-29.75,39.74
			l-11.58,1.66C25.47,99.03,7.68,85.71,4.92,66.52L1.83,45.01C-0.93,25.82,12.4,8.03,31.59,5.27z"/>
		<path class="st3" d="M49.79,2.66l11.58-1.66c19.19-2.76,36.98,10.56,39.74,29.75l3.09,21.51c2.76,19.19-10.56,36.98-29.75,39.74
			l-11.58,1.66C43.67,96.41,25.88,83.09,23.12,63.9L20.03,42.4C17.27,23.21,30.6,5.41,49.79,2.66z"/>
		<path class="st3" d="M49.79,2.66l11.58-1.66c19.19-2.76,36.98,10.56,39.74,29.75l3.09,21.51c2.76,19.19-10.56,36.98-29.75,39.74
			l-11.58,1.66C43.67,96.41,25.88,83.09,23.12,63.9L20.03,42.4C17.27,23.21,30.6,5.41,49.79,2.66z"/>
		<path class="st3" d="M49.79,2.66l11.58-1.66c19.19-2.76,36.98,10.56,39.74,29.75l3.09,21.51c2.76,19.19-10.56,36.98-29.75,39.74
			l-11.58,1.66C43.67,96.41,25.88,83.09,23.12,63.9L20.03,42.4C17.27,23.21,30.6,5.41,49.79,2.66z"/>
		<path d="M44.88,35.45l2.3-0.33c1.19-0.17,2.3,0.66,2.47,1.85l1.28,8.92c0.17,1.19-0.66,2.3-1.85,2.47l-2.3,0.33
			c-1.19,0.17-2.3-0.66-2.47-1.85l-1.28-8.92C42.86,36.72,43.69,35.62,44.88,35.45z"/>
		<path d="M73.01,31.41l2.3-0.33c1.19-0.17,2.3,0.66,2.47,1.85l1.28,8.92c0.17,1.19-0.66,2.3-1.85,2.47l-2.3,0.33
			c-1.19,0.17-2.3-0.66-2.47-1.85l-1.28-8.92C70.99,32.68,71.81,31.58,73.01,31.41z"/>
	</g>
</g>
</svg>
