<?xml version="1.0" encoding="utf-8"?>
<!-- Generator: Adobe Illustrator 27.3.1, SVG Export Plug-In . SVG Version: 6.00 Build 0)  -->
<svg version="1.1" id="Layer_1" xmlns="http://www.w3.org/2000/svg" xmlns:xlink="http://www.w3.org/1999/xlink" x="0px" y="0px"
	 viewBox="0 0 111 32" style="enable-background:new 0 0 111 32;" xml:space="preserve">
<style type="text/css">
	.st0{fill:#FFFFFF;}
</style>
<path class="st0" d="M29.2,31.3h-4.6V9.2h4.6V31.3z"/>
<path class="st0" d="M45.6,8.7c2.5,0,4.6,0.9,6.2,2.6c1.6,1.8,2.4,4,2.4,6.7v13.2h-4.6V18.8c0-1.7-0.5-3.1-1.6-4.2s-2.5-1.7-4.1-1.7
	c-1.8,0-3.3,0.6-4.5,1.7s-1.7,2.5-1.7,4.2v12.5h-4.6V9.2h4.6v5.7c0.6-1.9,1.6-3.4,3-4.5C42.1,9.3,43.8,8.7,45.6,8.7L45.6,8.7z"/>
<path class="st0" d="M68.4,8.7c3.6,0,6.4,1.3,8.7,3.8c2.2,2.5,3.1,5.6,2.7,9.2H61.4c0.3,1.8,1.1,3.2,2.5,4.4
	c1.3,1.1,2.9,1.7,4.8,1.7c1.4,0,2.7-0.4,3.9-1.1c1.1-0.7,2-1.7,2.7-2.9l3.8,1.7c-1,1.9-2.4,3.4-4.2,4.5c-1.8,1.1-3.9,1.7-6.3,1.7
	c-3.3,0-6.1-1.1-8.4-3.3c-2.3-2.2-3.4-4.9-3.4-8.2s1.1-6,3.3-8.2C62.4,9.8,65.1,8.7,68.4,8.7L68.4,8.7z M68.4,12.7
	c-1.7,0-3.1,0.5-4.4,1.5c-1.2,1-2,2.4-2.4,4h13.6c-0.4-1.6-1.2-3-2.4-4C71.6,13.2,70.1,12.7,68.4,12.7z"/>
<path class="st0" d="M92.4,8.7c2.7,0,4.8,0.7,6.5,2.1s2.5,3.4,2.5,6v14.5h-4.6v-5.9c-1.4,4.2-4.1,6.3-8.2,6.3
	c-1.9,0-3.5-0.6-4.8-1.7s-1.9-2.6-1.9-4.5c0-2.2,0.8-3.8,2.3-4.9s3.5-1.8,5.9-2l4.3-0.4c1.6-0.1,2.4-0.9,2.4-2.2
	c0-1.1-0.4-1.9-1.2-2.6c-0.8-0.6-1.9-1-3.2-1c-1.3,0-2.5,0.3-3.4,1s-1.5,1.7-1.8,3l-4.5-1.1c0.4-2.1,1.5-3.7,3.3-5
	C87.6,9.4,89.8,8.7,92.4,8.7L92.4,8.7z M90.1,28.1c1.9,0,3.5-0.6,4.8-1.9s1.9-2.7,1.9-4.4v-1.2c-0.3,0.6-1.2,0.9-2.5,1.1l-4.2,0.5
	c-1.1,0.1-2,0.5-2.6,1s-1,1.2-1,2.1s0.3,1.6,1,2.1C88.1,27.8,89,28.1,90.1,28.1L90.1,28.1z"/>
<path class="st0" d="M21.5,31.3h-21V9.2h4.8V27h16.2V31.3z"/>
<path class="st0" d="M105.7,8.7c2.4,0,4.3-1.9,4.3-4.3s-1.9-4.3-4.3-4.3s-4.3,1.9-4.3,4.3C101.4,6.8,103.3,8.7,105.7,8.7z"/>
</svg>
