<?xml version="1.0" encoding="utf-8"?>
<!-- Generator: Adobe Illustrator 27.3.1, SVG Export Plug-In . SVG Version: 6.00 Build 0)  -->
<svg version="1.1" id="Layer_1" xmlns="http://www.w3.org/2000/svg" xmlns:xlink="http://www.w3.org/1999/xlink" x="0px" y="0px"
	 viewBox="0 0 64 64" style="enable-background:new 0 0 64 64;" xml:space="preserve">
<style type="text/css">
	.st0{fill:#E6DAFE;}
</style>
<path class="st0" d="M37.91,25.71c0,3.52-2.85,6.38-6.38,6.38l0,0v6.38c7.05,0,12.76-5.72,12.75-12.76v0
	c0-7.05-5.71-12.76-12.75-12.76c-2.24,0-4.44,0.59-6.38,1.71c-3.95,2.28-6.38,6.5-6.38,11.06v31.91l5.73,5.74L25.16,64V25.71
	c-0.09-3.52,2.69-6.45,6.21-6.55s6.45,2.69,6.55,6.21C37.92,25.49,37.92,25.6,37.91,25.71L37.91,25.71z"/>
<path class="st0" d="M31.54,0.16c-4.65,0-9,1.24-12.75,3.42c-2.4,1.39-4.55,3.15-6.38,5.23c-4.12,4.66-6.39,10.66-6.38,16.88v19.15
	l6.38,6.38V25.69c-0.01-5.45,2.31-10.64,6.38-14.27c3.51-3.14,8.05-4.88,12.75-4.88c10.57,0,19.13,8.57,19.13,19.15
	c0,10.57-8.57,19.15-19.13,19.15v6.38c14.09,0,25.51-11.43,25.51-25.53S45.63,0.16,31.54,0.16z"/>
</svg>
