<?xml version="1.0" encoding="utf-8"?>
<!-- Generator: Adobe Illustrator 27.3.1, SVG Export Plug-In . SVG Version: 6.00 Build 0)  -->
<svg version="1.1" id="Layer_1" xmlns="http://www.w3.org/2000/svg" xmlns:xlink="http://www.w3.org/1999/xlink" x="0px" y="0px"
	 viewBox="0 0 150.99 36.06" style="enable-background:new 0 0 150.99 36.06;" xml:space="preserve">
<style type="text/css">
	.st0{fill:#0C0C4F;stroke:#EC796B;stroke-width:0.4322;stroke-miterlimit:3.4146;}
	.st1{fill-rule:evenodd;clip-rule:evenodd;fill:#FAFAFA;}
	.st2{fill-rule:evenodd;clip-rule:evenodd;fill:#EC796B;}
	.st3{fill:#FFFFFF;}
	.st4{fill-rule:evenodd;clip-rule:evenodd;fill:#FFFFFF;}
</style>
<path class="st0" d="M0.92,17.65c0,9.31,7.55,16.86,16.86,16.86c9.31,0,16.86-7.55,16.86-16.86S27.08,0.8,17.77,0.8
	C8.46,0.8,0.92,8.34,0.92,17.65z"/>
<path class="st1" d="M10.24,13.63l0.42-1.3c0.09-0.26,0.29-0.47,0.56-0.55l1.31-0.4c0.18-0.06,0.18-0.31,0-0.37l-1.3-0.42
	c-0.26-0.09-0.47-0.29-0.55-0.56l-0.4-1.31c-0.06-0.18-0.31-0.18-0.37,0l-0.42,1.3c-0.09,0.26-0.29,0.47-0.56,0.55l-1.31,0.4
	c-0.18,0.06-0.18,0.31,0,0.37l1.3,0.42c0.26,0.09,0.47,0.3,0.55,0.56l0.4,1.31C9.93,13.81,10.18,13.81,10.24,13.63z"/>
<path class="st2" d="M30.92,12.87c-0.54-0.6-1.38-0.94-2.2-1.08c-0.83-0.13-1.69-0.12-2.5,0.02c-1.65,0.28-3.14,0.96-4.45,1.8
	c-0.68,0.41-1.26,0.89-1.86,1.38c-0.29,0.25-0.55,0.51-0.83,0.77l-0.75,0.75c-0.81,0.85-1.62,1.63-2.39,2.27
	c-0.78,0.64-1.51,1.12-2.23,1.46c-0.72,0.34-1.49,0.54-2.49,0.57c-0.99,0.03-2.17-0.14-3.42-0.44c-1.26-0.29-2.59-0.71-4.07-1.07
	c0.52,1.43,1.29,2.7,2.29,3.86c1.01,1.14,2.27,2.17,3.89,2.86c1.6,0.7,3.61,0.95,5.48,0.57c1.88-0.36,3.53-1.23,4.87-2.24
	c1.34-1.02,2.42-2.18,3.33-3.38c0.25-0.33,0.39-0.52,0.57-0.78l0.5-0.75c0.35-0.46,0.67-0.99,1.02-1.45
	c0.68-0.96,1.35-1.92,2.13-2.8c0.39-0.45,0.81-0.88,1.29-1.29c0.24-0.2,0.51-0.4,0.8-0.57C30.23,13.14,30.54,12.99,30.92,12.87z"/>
<path class="st1" d="M30.92,12.87c-0.58-1.46-1.66-2.69-3.1-3.6c-1.44-0.9-3.43-1.36-5.41-0.97c-0.98,0.19-1.92,0.55-2.75,1.04
	c-0.83,0.48-1.57,1.06-2.21,1.69c-0.32,0.31-0.61,0.64-0.9,0.97l-0.75,0.95l-1.16,1.54c-1.47,1.98-3.06,4.29-5.67,4.98
	c-2.56,0.67-3.67,0.08-5.23-0.17c0.29,0.74,0.64,1.45,1.12,2.08c0.47,0.64,1.03,1.25,1.72,1.76c0.35,0.25,0.72,0.49,1.13,0.7
	c0.41,0.2,0.85,0.38,1.32,0.51c0.93,0.26,1.98,0.35,3,0.21c1.02-0.14,1.99-0.46,2.84-0.89c0.86-0.42,1.6-0.94,2.27-1.49
	c1.32-1.1,2.35-2.31,3.22-3.54c0.44-0.61,0.83-1.24,1.2-1.87l0.43-0.74c0.13-0.22,0.27-0.44,0.4-0.64c0.55-0.82,1.08-1.48,1.73-1.97
	c0.64-0.51,1.54-0.88,2.73-0.97C28.04,12.37,29.42,12.53,30.92,12.87z"/>
<path class="st2" d="M24.49,25.02c0,1.07,0.87,1.95,1.95,1.95c1.07,0,1.94-0.87,1.94-1.95c0-1.07-0.87-1.95-1.94-1.95
	C25.36,23.08,24.49,23.95,24.49,25.02z"/>
<path class="st3" d="M149.92,12.88v-1.96c0-0.08-0.06-0.14-0.14-0.14h-11.19c-0.08,0-0.14,0.06-0.14,0.14v1.96h4.55v12.71h2.38
	V12.88H149.92z"/>
<path class="st3" d="M126.75,10.77c-0.08,0-0.14,0.06-0.14,0.14v14.53c0,0.08,0.06,0.14,0.14,0.14h9.42c0.08,0,0.14-0.06,0.14-0.14
	V23.5h-7.32v-4.65h6.05V16.8h-6.05v-3.95h6.8v-1.94c0-0.08-0.06-0.14-0.14-0.14H126.75z"/>
<path class="st3" d="M121.29,25.5l0.05,0.09h1.83c0.08,0,0.14-0.06,0.14-0.14V10.91c0-0.08-0.06-0.14-0.14-0.14h-2.19v10.26
	c-0.38-0.61-0.82-1.27-1.33-2c-0.64-0.95-1.33-1.91-2.07-2.88c-0.72-0.99-1.46-1.94-2.22-2.86c-0.74-0.93-1.44-1.75-2.09-2.45
	l-0.05-0.06h-1.72c-0.08,0-0.14,0.06-0.14,0.14v14.53c0,0.08,0.06,0.14,0.14,0.14h2.19V14.6c0.3,0.35,0.62,0.75,0.96,1.18
	c0.46,0.58,0.93,1.21,1.41,1.87l0,0v0c0.49,0.65,0.97,1.33,1.46,2.04v0l0,0c0.5,0.71,0.98,1.41,1.44,2.1v0l0,0
	c0.46,0.68,0.88,1.34,1.27,1.98v0l0,0C120.63,24.41,120.98,24.99,121.29,25.5z"/>
<path class="st3" d="M108.48,11.07l0.05-0.06c0.08-0.09,0.02-0.24-0.1-0.24h-2.6l-0.05,0.06c-0.35,0.4-0.78,0.87-1.29,1.41v0
	c-0.5,0.53-1.04,1.08-1.6,1.67c-0.57,0.58-1.15,1.17-1.73,1.75c-0.47,0.46-0.9,0.88-1.31,1.26v-6.15h-2.24
	c-0.08,0-0.14,0.06-0.14,0.14v14.53c0,0.08,0.06,0.14,0.14,0.14h2.24v-6.72c0.49,0.32,0.99,0.7,1.5,1.13l0,0l0,0
	c0.62,0.51,1.23,1.07,1.82,1.68l0,0l0,0c0.61,0.59,1.18,1.22,1.72,1.88l0,0l0,0c0.54,0.65,1.01,1.3,1.43,1.94l0.05,0.08h2.54
	c0.11,0,0.18-0.12,0.12-0.21L109,25.32c-0.38-0.66-0.86-1.36-1.43-2.09c-0.56-0.73-1.16-1.44-1.8-2.14c-0.64-0.7-1.3-1.36-1.97-1.97
	c-0.61-0.56-1.19-1.04-1.74-1.44c0.47-0.46,0.97-0.95,1.5-1.48c0.58-0.58,1.17-1.18,1.75-1.77c0.6-0.61,1.17-1.2,1.71-1.78l0,0l0,0
	C107.56,12.07,108.05,11.54,108.48,11.07z"/>
<path class="st4" d="M83.98,10.66c-0.08,0-0.14,0.06-0.14,0.14v14.65c0,0.08,0.06,0.14,0.14,0.14H86v-5.39h2.94
	c0.33,0.4,0.65,0.81,0.97,1.24l0,0l0,0c0.51,0.68,0.99,1.38,1.43,2.11l0,0v0c0.4,0.65,0.74,1.29,1.04,1.92l0.05,0.1h2.38
	c0.1,0,0.17-0.11,0.13-0.2c-0.27-0.6-0.57-1.19-0.9-1.76c-0.45-0.8-0.94-1.59-1.48-2.38c-0.31-0.45-0.62-0.88-0.94-1.31
	c0.89-0.27,1.59-0.76,2.1-1.48l0,0c0.61-0.86,0.91-1.88,0.91-3.04c0-0.8-0.14-1.53-0.42-2.18c-0.28-0.67-0.71-1.22-1.27-1.66
	c-0.56-0.44-1.25-0.72-2.06-0.84c-0.19-0.03-0.38-0.06-0.59-0.06c-0.2-0.01-0.37-0.02-0.51-0.02c-0.62,0-1.24,0-1.85,0l0,0
	C86.61,10.66,85.3,10.66,83.98,10.66z M92.44,15.44c0,0.38-0.06,0.76-0.19,1.14c-0.13,0.36-0.33,0.67-0.6,0.94
	c-0.26,0.26-0.61,0.44-1.05,0.54c-0.14,0.03-0.29,0.05-0.45,0.07l0,0h0c-0.16,0.01-0.3,0.02-0.42,0.02H86v-5.42h3.72
	c0.12,0,0.26,0.01,0.42,0.02l0,0l0,0c0.16,0.01,0.3,0.03,0.44,0.06l0,0l0,0c0.44,0.1,0.78,0.28,1.05,0.54l0,0l0,0
	c0.28,0.27,0.48,0.59,0.6,0.95v0v0C92.37,14.68,92.44,15.05,92.44,15.44z"/>
<path class="st4" d="M78.56,23.63L78.56,23.63L78.56,23.63c0.21,0.6,0.43,1.21,0.67,1.84l0.04,0.11h2.38c0.1,0,0.17-0.1,0.13-0.19
	c-0.52-1.43-1.05-2.86-1.58-4.28c-0.49-1.31-0.97-2.55-1.44-3.72c-0.46-1.17-0.92-2.28-1.38-3.34c-0.46-1.08-0.95-2.14-1.45-3.2
	c-0.02-0.05-0.07-0.08-0.13-0.08h-1.9c-0.05,0-0.1,0.03-0.13,0.08c-0.51,1.06-0.99,2.12-1.45,3.2c-0.46,1.06-0.93,2.17-1.4,3.34l0,0
	l0,0c-0.46,1.17-0.93,2.41-1.42,3.72c-0.54,1.42-1.06,2.85-1.58,4.28c-0.03,0.09,0.03,0.19,0.13,0.19h2.28v0h0.04l0.05-0.06
	c0.55-0.59,1.17-1.17,1.85-1.74l0,0l0,0c0.68-0.58,1.39-1.12,2.14-1.62l0,0l0,0c0.73-0.52,1.46-0.98,2.2-1.39l0,0l0,0
	c0.27-0.15,0.53-0.29,0.79-0.42l0.5,1.42l0,0v0C78.13,22.4,78.35,23.02,78.56,23.63z M75.99,16.6L75.99,16.6L75.99,16.6
	c0.2,0.51,0.4,1.03,0.6,1.55c-0.02,0.01-0.03,0.01-0.05,0.02c-0.71,0.32-1.47,0.74-2.28,1.25c-0.78,0.49-1.55,1.02-2.31,1.59
	l0.32-0.93c0.43-1.2,0.86-2.36,1.29-3.48c0.39-1.01,0.8-1.98,1.23-2.91C75.21,14.62,75.61,15.59,75.99,16.6z"/>
<path class="st3" d="M68.5,12.88v-1.96c0-0.08-0.06-0.14-0.14-0.14H57.17c-0.08,0-0.14,0.06-0.14,0.14v1.96h4.55v12.56
	c0,0.08,0.06,0.14,0.14,0.14h2.09c0.08,0,0.14-0.06,0.14-0.14V12.88H68.5z"/>
<path class="st3" d="M46.76,25.4L46.76,25.4c-0.86-0.37-1.58-0.89-2.15-1.57l0,0l0,0c-0.56-0.69-0.93-1.51-1.1-2.44
	c-0.01-0.05,0-0.09,0.03-0.13c0.03-0.04,0.07-0.06,0.12-0.07l1.9-0.3c0.09-0.01,0.18,0.04,0.2,0.13c0.23,0.89,0.7,1.59,1.42,2.09
	c0.73,0.5,1.59,0.75,2.59,0.75c0.65,0,1.23-0.1,1.74-0.3c0.52-0.2,0.92-0.49,1.21-0.85c0.29-0.36,0.43-0.78,0.43-1.28
	c0-0.31-0.05-0.56-0.16-0.77l0-0.01c-0.1-0.22-0.24-0.4-0.42-0.55l-0.01,0c-0.18-0.16-0.38-0.29-0.62-0.4
	c-0.24-0.11-0.49-0.21-0.75-0.28l0,0l-3.78-1.12c-0.42-0.13-0.83-0.28-1.22-0.47l0,0l0,0c-0.4-0.2-0.76-0.45-1.07-0.74l0,0l0,0
	c-0.32-0.3-0.57-0.67-0.76-1.09l0,0c-0.19-0.43-0.28-0.93-0.28-1.5c0-0.91,0.24-1.7,0.71-2.35l0,0c0.48-0.65,1.13-1.15,1.94-1.49
	c0.81-0.34,1.71-0.5,2.72-0.5c1.02,0.01,1.93,0.19,2.74,0.55c0.81,0.35,1.49,0.87,2.02,1.53c0.54,0.67,0.9,1.47,1.09,2.39
	c0.01,0.05,0,0.09-0.03,0.13c-0.03,0.04-0.07,0.07-0.12,0.07l-1.95,0.34c-0.05,0.01-0.09,0-0.13-0.03
	c-0.04-0.03-0.06-0.07-0.07-0.11c-0.1-0.58-0.32-1.07-0.65-1.47l0,0c-0.33-0.42-0.75-0.74-1.25-0.96l0,0
	c-0.5-0.23-1.06-0.35-1.67-0.36h0c-0.58-0.01-1.11,0.09-1.57,0.28c-0.46,0.19-0.83,0.45-1.09,0.78l0,0
	c-0.26,0.32-0.39,0.68-0.39,1.1c0,0.42,0.12,0.74,0.34,0.98c0.24,0.26,0.54,0.46,0.9,0.62c0.38,0.16,0.75,0.28,1.1,0.38l0,0
	l2.82,0.81c0.33,0.09,0.7,0.22,1.13,0.38c0.44,0.16,0.87,0.39,1.28,0.69c0.42,0.3,0.77,0.7,1.04,1.19c0.28,0.5,0.41,1.12,0.41,1.86
	c0,0.74-0.15,1.4-0.45,1.99c-0.29,0.58-0.71,1.07-1.24,1.46l0,0c-0.53,0.38-1.14,0.67-1.83,0.87c-0.69,0.2-1.43,0.31-2.21,0.31
	C48.6,25.95,47.63,25.77,46.76,25.4z"/>
</svg>
