<?xml version="1.0" encoding="utf-8"?>
<!-- Generator: Adobe Illustrator 27.3.1, SVG Export Plug-In . SVG Version: 6.00 Build 0)  -->
<svg version="1.1" id="Layer_1" xmlns="http://www.w3.org/2000/svg" xmlns:xlink="http://www.w3.org/1999/xlink" x="0px" y="0px"
	 viewBox="0 0 64 12.36" style="enable-background:new 0 0 64 12.36;" xml:space="preserve">
<style type="text/css">
	.st0{clip-path:url(#SVGID_00000067917508943532359500000011911511434308430734_);fill:#FFFFFF;}
</style>
<g>
	<defs>
		<rect id="SVGID_1_" x="0.36" y="0.55" width="62.35" height="11.43"/>
	</defs>
	<clipPath id="SVGID_00000058580063616907577390000002310608524705540238_">
		<use xlink:href="#SVGID_1_"  style="overflow:visible;"/>
	</clipPath>
	<path style="clip-path:url(#SVGID_00000058580063616907577390000002310608524705540238_);fill:#FFFFFF;" d="M4.05,1.63
		c1.26-0.66,2.73-0.79,4.09-0.37c1.36,0.42,2.49,1.37,3.15,2.63c0.66,1.26,0.79,2.73,0.37,4.09c-0.42,1.36-1.37,2.49-2.63,3.15
		c-1.26,0.66-2.73,0.79-4.09,0.37c-1.36-0.42-2.49-1.37-3.15-2.63C1.13,7.61,1,6.14,1.42,4.78C1.84,3.42,2.79,2.29,4.05,1.63z
		 M8.83,10.76c1.16-0.61,2.03-1.66,2.43-2.91c0.39-1.25,0.27-2.61-0.34-3.77c-0.61-1.16-1.66-2.03-2.91-2.42
		C6.76,1.26,5.4,1.38,4.24,1.99C3.08,2.6,2.2,3.65,1.81,4.9C1.42,6.15,1.54,7.51,2.15,8.67c0.61,1.16,1.66,2.03,2.91,2.42
		C6.31,11.49,7.67,11.37,8.83,10.76z"/>
	<path style="clip-path:url(#SVGID_00000058580063616907577390000002310608524705540238_);fill:#FFFFFF;" d="M3.84,2.69
		C4.88,2.15,6.1,2.04,7.23,2.39c1.12,0.35,2.06,1.13,2.61,2.18c0.55,1.04,0.65,2.26,0.3,3.39c-0.35,1.12-1.13,2.06-2.18,2.61
		c-1.04,0.55-2.26,0.66-3.39,0.31c-1.12-0.35-2.06-1.13-2.61-2.18C1.42,7.65,1.31,6.43,1.66,5.3C2.02,4.18,2.8,3.24,3.84,2.69z
		 M7.82,10.28C8.78,9.77,9.51,8.9,9.84,7.85c0.33-1.04,0.22-2.17-0.28-3.14C9.05,3.75,8.17,3.02,7.13,2.7
		C6.09,2.37,4.96,2.47,3.99,2.98C3.02,3.49,2.3,4.36,1.97,5.4C1.64,6.44,1.75,7.57,2.25,8.54c0.51,0.97,1.38,1.69,2.42,2.02
		C5.72,10.88,6.85,10.78,7.82,10.28L7.82,10.28z"/>
	<path style="clip-path:url(#SVGID_00000058580063616907577390000002310608524705540238_);fill:#FFFFFF;" d="M3.63,3.76
		c0.83-0.43,1.79-0.52,2.68-0.24c0.89,0.28,1.64,0.9,2.07,1.72c0.43,0.83,0.52,1.79,0.24,2.68C8.35,8.82,7.73,9.56,6.9,10
		c-0.83,0.43-1.79,0.52-2.68,0.24c-0.89-0.28-1.64-0.9-2.07-1.73C1.72,7.69,1.63,6.72,1.91,5.83C2.19,4.94,2.81,4.19,3.63,3.76z
		 M6.8,9.79c0.77-0.41,1.35-1.1,1.61-1.94c0.26-0.83,0.18-1.74-0.22-2.51C7.78,4.58,7.08,4,6.25,3.74S4.51,3.56,3.74,3.96
		C2.97,4.37,2.39,5.06,2.13,5.9S1.95,7.63,2.35,8.41c0.41,0.77,1.1,1.35,1.94,1.61C5.12,10.28,6.02,10.2,6.8,9.79z"/>
	<path style="clip-path:url(#SVGID_00000058580063616907577390000002310608524705540238_);fill:#FFFFFF;" d="M3.43,4.83
		c0.61-0.32,1.32-0.38,1.98-0.18c0.66,0.21,1.21,0.66,1.53,1.27C7.26,6.53,7.32,7.25,7.12,7.9C6.91,8.56,6.45,9.11,5.84,9.43
		C5.23,9.75,4.52,9.82,3.86,9.61C3.2,9.41,2.65,8.95,2.33,8.34C2.01,7.73,1.95,7.01,2.15,6.35S2.82,5.15,3.43,4.83z M5.78,9.31
		c0.58-0.3,1.01-0.83,1.21-1.45c0.19-0.62,0.13-1.3-0.17-1.88c-0.3-0.58-0.83-1.01-1.45-1.21c-0.62-0.19-1.3-0.13-1.88,0.17
		C2.91,5.25,2.48,5.77,2.28,6.4c-0.2,0.62-0.13,1.3,0.17,1.88c0.3,0.58,0.83,1.01,1.45,1.21C4.52,9.68,5.2,9.62,5.78,9.31z"/>
	<path style="clip-path:url(#SVGID_00000058580063616907577390000002310608524705540238_);fill:#FFFFFF;" d="M0.38,0.54H0.36v0.1
		h0.02V0.54"/>
	<path style="clip-path:url(#SVGID_00000058580063616907577390000002310608524705540238_);fill:#FFFFFF;" d="M21,4.13l-1.41,3.95
		c-0.01,0.02-0.02,0.04-0.04,0.05c-0.02,0.01-0.04,0.02-0.06,0.01h-0.11c-0.02,0-0.04,0-0.06-0.02c-0.02-0.01-0.03-0.03-0.04-0.05
		l-1.06-2.77l-1.05,2.77c-0.01,0.02-0.02,0.03-0.04,0.05c-0.02,0.01-0.04,0.02-0.06,0.02h-0.11c-0.02,0-0.04,0-0.06-0.02
		C16.92,8.12,16.9,8.1,16.9,8.08l-1.41-3.95c-0.02-0.06,0-0.1,0.06-0.1h0.44c0.02,0,0.04,0,0.06,0.01c0.02,0.01,0.03,0.03,0.04,0.05
		l1,2.99l1.02-2.74c0.01-0.02,0.02-0.03,0.04-0.05c0.02-0.01,0.04-0.02,0.06-0.02h0.09c0.02,0,0.04,0,0.06,0.02
		c0.02,0.01,0.03,0.03,0.04,0.05l1.05,2.74l0.98-2.99c0.01-0.02,0.02-0.04,0.04-0.05c0.02-0.01,0.04-0.02,0.06-0.01h0.43
		C21,4.03,21.02,4.07,21,4.13"/>
	<path style="clip-path:url(#SVGID_00000058580063616907577390000002310608524705540238_);fill:#FFFFFF;" d="M27.13,6.05
		c0,0.41-0.13,0.8-0.36,1.14c-0.23,0.34-0.56,0.6-0.94,0.75c-0.38,0.15-0.8,0.19-1.2,0.11c-0.4-0.08-0.77-0.28-1.06-0.57
		c-0.29-0.29-0.48-0.66-0.56-1.06c-0.08-0.4-0.04-0.81,0.12-1.19c0.16-0.38,0.42-0.7,0.77-0.92c0.34-0.23,0.74-0.35,1.15-0.35
		c0.28,0,0.55,0.05,0.8,0.15c0.26,0.1,0.49,0.26,0.68,0.45c0.19,0.19,0.35,0.43,0.45,0.68C27.09,5.51,27.14,5.78,27.13,6.05z
		 M26.55,6.05c0-0.96-0.63-1.62-1.5-1.62c-0.87,0-1.5,0.66-1.5,1.62c0,0.96,0.63,1.62,1.5,1.62C25.92,7.67,26.55,7.01,26.55,6.05z"
		/>
	<path style="clip-path:url(#SVGID_00000058580063616907577390000002310608524705540238_);fill:#FFFFFF;" d="M32.63,7.91
		c0.01,0.02,0.02,0.03,0.02,0.05c0,0.02,0,0.04-0.01,0.06c-0.01,0.02-0.02,0.03-0.04,0.04c-0.02,0.01-0.04,0.01-0.06,0.01h-0.39
		c-0.01,0-0.03,0-0.04-0.01c-0.01-0.01-0.02-0.02-0.03-0.03L31.1,6.56h-1.06v1.43c0,0.02-0.01,0.04-0.02,0.06
		C30,8.07,29.98,8.08,29.96,8.08h-0.38c-0.02,0-0.04-0.01-0.06-0.02c-0.02-0.02-0.02-0.04-0.02-0.06V4.12
		c0-0.02,0.01-0.04,0.02-0.06c0.02-0.02,0.04-0.02,0.06-0.02h1.51c1.06,0,1.58,0.55,1.58,1.27c0.01,0.28-0.09,0.56-0.27,0.78
		c-0.18,0.22-0.44,0.37-0.72,0.42L32.63,7.91z M30.97,6.1c0.83,0,1.11-0.34,1.11-0.8c0-0.46-0.28-0.8-1.11-0.8h-0.93v1.6H30.97z"/>
	<path style="clip-path:url(#SVGID_00000058580063616907577390000002310608524705540238_);fill:#FFFFFF;" d="M39.11,3.97h0.13
		c0.01,0,0.02,0,0.03,0c0.01,0,0.02,0.01,0.03,0.02c0.01,0.01,0.01,0.02,0.02,0.03c0,0.01,0.01,0.02,0,0.03v3.94
		c0,0.01,0,0.02,0,0.03c0,0.01-0.01,0.02-0.02,0.03c-0.01,0.01-0.02,0.01-0.03,0.02c-0.01,0-0.02,0.01-0.03,0h-0.38
		c-0.01,0-0.02,0-0.03,0c-0.01,0-0.02-0.01-0.03-0.02c-0.01-0.01-0.01-0.02-0.02-0.03s-0.01-0.02,0-0.03v-2.8l-1.54,2.22
		c-0.01,0.01-0.01,0.02-0.02,0.03c-0.01,0.01-0.02,0.01-0.03,0.01s-0.02,0-0.03-0.01c-0.01-0.01-0.02-0.02-0.02-0.03l-1.54-2.22v2.8
		c0,0.01,0,0.02,0,0.03c0,0.01-0.01,0.02-0.02,0.03c-0.01,0.01-0.02,0.01-0.03,0.02c-0.01,0-0.02,0.01-0.03,0H35.1
		c-0.01,0-0.02,0-0.03,0c-0.01,0-0.02-0.01-0.03-0.02c-0.01-0.01-0.01-0.02-0.02-0.03c0-0.01-0.01-0.02,0-0.03V4.05
		c0-0.01,0-0.02,0-0.03c0-0.01,0.01-0.02,0.02-0.03c0.01-0.01,0.02-0.01,0.03-0.02c0.01,0,0.02-0.01,0.03,0h0.12
		c0.02,0,0.04,0.01,0.06,0.02c0.02,0.01,0.03,0.02,0.05,0.04l1.84,2.55l1.84-2.55c0.01-0.02,0.03-0.03,0.04-0.04
		C39.07,3.97,39.09,3.97,39.11,3.97"/>
	<path style="clip-path:url(#SVGID_00000058580063616907577390000002310608524705540238_);fill:#FFFFFF;" d="M45.52,4.12v3.88
		c0,0.02-0.01,0.04-0.02,0.06c-0.02,0.02-0.04,0.02-0.06,0.02h-0.38c-0.02,0-0.04-0.01-0.06-0.02c-0.02-0.02-0.02-0.04-0.02-0.06
		V6.23h-2.54v1.77c0,0.02-0.01,0.04-0.02,0.06c-0.02,0.02-0.04,0.02-0.06,0.02h-0.38c-0.02,0-0.04-0.01-0.06-0.02
		c-0.02-0.02-0.02-0.04-0.03-0.06V4.12c0-0.02,0.01-0.04,0.03-0.06c0.02-0.02,0.04-0.02,0.06-0.02h0.38c0.02,0,0.04,0.01,0.06,0.02
		c0.02,0.02,0.02,0.04,0.02,0.06v1.65h2.54V4.12c0-0.02,0.01-0.04,0.02-0.06c0.02-0.02,0.04-0.02,0.06-0.02h0.38
		c0.02,0,0.04,0.01,0.06,0.02C45.51,4.07,45.52,4.09,45.52,4.12z"/>
	<path style="clip-path:url(#SVGID_00000058580063616907577390000002310608524705540238_);fill:#FFFFFF;" d="M52.03,6.05
		c0,0.41-0.13,0.8-0.36,1.14c-0.23,0.34-0.56,0.6-0.94,0.75c-0.38,0.15-0.8,0.19-1.2,0.11c-0.4-0.08-0.77-0.28-1.06-0.57
		C48.19,7.2,48,6.83,47.92,6.43c-0.08-0.4-0.04-0.81,0.12-1.19c0.16-0.38,0.42-0.7,0.77-0.92c0.34-0.23,0.74-0.35,1.15-0.35
		c0.28,0,0.55,0.05,0.8,0.15c0.26,0.1,0.49,0.26,0.68,0.45c0.19,0.19,0.35,0.43,0.45,0.68C51.99,5.51,52.04,5.78,52.03,6.05z
		 M51.46,6.05c0-0.96-0.63-1.62-1.5-1.62s-1.5,0.66-1.5,1.62c0,0.96,0.63,1.62,1.5,1.62S51.46,7.01,51.46,6.05z"/>
	<path style="clip-path:url(#SVGID_00000058580063616907577390000002310608524705540238_);fill:#FFFFFF;" d="M57.28,7.69v0.3
		c0,0.01,0,0.02,0,0.03s-0.01,0.02-0.02,0.03c-0.01,0.01-0.02,0.01-0.03,0.02c-0.01,0-0.02,0.01-0.03,0h-2.72
		c-0.02,0-0.04-0.01-0.06-0.02C54.4,8.04,54.4,8.01,54.4,7.99V4.12c0-0.02,0.01-0.04,0.02-0.06c0.02-0.02,0.04-0.02,0.06-0.02h0.38
		c0.02,0,0.04,0.01,0.06,0.02c0.02,0.02,0.02,0.04,0.02,0.06v3.5h2.25c0.01,0,0.02,0,0.03,0c0.01,0,0.02,0.01,0.03,0.02
		c0.01,0.01,0.01,0.02,0.02,0.03C57.28,7.67,57.28,7.68,57.28,7.69"/>
	<path style="clip-path:url(#SVGID_00000058580063616907577390000002310608524705540238_);fill:#FFFFFF;" d="M62.57,7.69v0.3
		c0,0.01,0,0.02,0,0.03c0,0.01-0.01,0.02-0.02,0.03c-0.01,0.01-0.02,0.01-0.03,0.02c-0.01,0-0.02,0.01-0.03,0h-2.93
		c-0.02,0-0.04-0.01-0.06-0.02c-0.02-0.02-0.02-0.04-0.02-0.06V4.12c0-0.02,0.01-0.04,0.02-0.06c0.02-0.02,0.04-0.02,0.06-0.02h2.87
		c0.01,0,0.02,0,0.03,0c0.01,0,0.02,0.01,0.03,0.02c0.01,0.01,0.01,0.02,0.02,0.03c0,0.01,0.01,0.02,0.01,0.03v0.3
		c0,0.01,0,0.02-0.01,0.03c0,0.01-0.01,0.02-0.02,0.03c-0.01,0.01-0.02,0.01-0.03,0.02c-0.01,0-0.02,0.01-0.03,0h-2.4v1.27h2.13
		c0.01,0,0.02,0,0.03,0c0.01,0,0.02,0.01,0.03,0.02c0.01,0.01,0.01,0.02,0.02,0.03c0,0.01,0.01,0.02,0.01,0.03v0.3
		c0,0.01,0,0.02,0,0.03c0,0.01-0.01,0.02-0.02,0.03c-0.01,0.01-0.02,0.01-0.03,0.02c-0.01,0-0.02,0.01-0.03,0.01h-2.13v1.38h2.47
		c0.01,0,0.02,0,0.03,0c0.01,0,0.02,0.01,0.03,0.02c0.01,0.01,0.01,0.02,0.02,0.03C62.57,7.67,62.57,7.68,62.57,7.69"/>
</g>
</svg>
