<?xml version="1.0" encoding="utf-8"?>
<!-- Generator: Adobe Illustrator 27.3.1, SVG Export Plug-In . SVG Version: 6.00 Build 0)  -->
<svg version="1.1" id="Layer_1" xmlns="http://www.w3.org/2000/svg" xmlns:xlink="http://www.w3.org/1999/xlink" x="0px" y="0px"
	 viewBox="0 0 125 26" style="enable-background:new 0 0 125 26;" xml:space="preserve">
<style type="text/css">
	.st0{fill-rule:evenodd;clip-rule:evenodd;fill:#FFFFFF;}
	.st1{fill:#FFFFFF;}
</style>
<g>
	<path class="st0" d="M43.2,13L30.9,0.7v9l-12.2,9l12.2,0v6.6L43.2,13z"/>
	<path class="st0" d="M-0.2,13l12.3,12.3v-8.9l12.2-9.1l-12.2,0V0.7L-0.2,13z"/>
	<path class="st1" d="M61.5,19.1h-9.4v-2.7l5.4-6h-5.3V7.7h9.2v2.6l-5.5,6.1h5.7V19.1L61.5,19.1z"/>
	<path class="st1" d="M74.4,7.8l-4.6,4.8l4.7,6.6h-3.8l-3-4.4l-1.3,1.3v3h-3.1V2.4h3.1V12l3.9-4.2L74.4,7.8L74.4,7.8z"/>
	<path class="st1" d="M87.8,6.6l-2.9,0.9c-0.1-0.6-0.4-1.1-0.9-1.6c-0.5-0.5-1.2-0.7-2.1-0.7c-0.8,0-1.4,0.2-1.8,0.6
		c-0.5,0.4-0.7,0.9-0.7,1.5c0,1,0.6,1.6,1.8,1.9l2.3,0.4c1.4,0.3,2.6,0.9,3.4,1.7c0.8,0.9,1.2,1.9,1.2,3.1c0,1.4-0.5,2.5-1.6,3.6
		c-1.1,1-2.5,1.5-4.3,1.5c-1,0-2-0.2-2.8-0.5c-0.8-0.3-1.5-0.7-2-1.2c-0.5-0.5-0.9-1.1-1.2-1.6c-0.3-0.6-0.4-1.2-0.5-1.8l3-0.8
		c0.1,0.9,0.4,1.6,1,2.2c0.6,0.6,1.5,0.9,2.6,0.9c0.8,0,1.5-0.2,1.9-0.6c0.5-0.4,0.7-0.9,0.7-1.5c0-0.5-0.2-0.9-0.5-1.2
		c-0.3-0.4-0.8-0.6-1.5-0.7l-2.3-0.5c-1.3-0.3-2.4-0.8-3.2-1.6c-0.8-0.8-1.2-1.8-1.2-3.1c0-1.4,0.6-2.7,1.7-3.7
		c1.1-1,2.5-1.5,4.1-1.5c0.9,0,1.8,0.1,2.5,0.4s1.3,0.6,1.8,1.1c0.4,0.4,0.8,0.9,1,1.3C87.5,5.7,87.7,6.1,87.8,6.6L87.8,6.6z"/>
	<path class="st1" d="M93.2,23.6h-3.3l2.7-5.9l-4.8-9.9h3.4l3,6.7l2.8-6.7h3.3L93.2,23.6L93.2,23.6z"/>
	<path class="st1" d="M104.6,12.6v6.5h-3.1V7.7h3v1.4c0.3-0.6,0.8-1,1.4-1.3c0.6-0.3,1.2-0.4,1.9-0.4c1.3,0,2.4,0.4,3.1,1.3
		c0.7,0.8,1.1,1.9,1.1,3.2v7.2h-3.1v-6.6c0-0.7-0.2-1.2-0.5-1.6c-0.3-0.4-0.9-0.6-1.6-0.6c-0.7,0-1.2,0.2-1.6,0.7
		C104.8,11.3,104.6,11.9,104.6,12.6C104.6,12.6,104.6,12.6,104.6,12.6z"/>
	<path class="st1" d="M119.5,10.2c-0.8,0-1.5,0.3-2.1,0.9c-0.6,0.6-0.8,1.4-0.8,2.3s0.3,1.8,0.8,2.4c0.6,0.6,1.3,0.8,2.1,0.8
		c0.7,0,1.3-0.2,1.7-0.6c0.4-0.4,0.7-0.8,0.9-1.4l2.7,0.9c-0.3,1.1-0.9,1.9-1.8,2.7c-0.9,0.8-2.1,1.1-3.5,1.1
		c-1.7,0-3.1-0.6-4.3-1.7c-1.1-1.2-1.7-2.6-1.7-4.3s0.6-3.2,1.7-4.3c1.1-1.1,2.6-1.7,4.2-1.7c1.4,0,2.6,0.4,3.6,1.1
		c0.9,0.7,1.5,1.6,1.8,2.7l-2.8,0.9C121.6,10.9,120.8,10.2,119.5,10.2L119.5,10.2z"/>
</g>
</svg>
