<?xml version="1.0" standalone="no"?><!DOCTYPE svg PUBLIC "-//W3C//DTD SVG 1.1//EN" "http://www.w3.org/Graphics/SVG/1.1/DTD/svg11.dtd"><svg t="1708615053582" class="icon" viewBox="0 0 1194 1024" version="1.1" xmlns="http://www.w3.org/2000/svg" p-id="1518" xmlns:xlink="http://www.w3.org/1999/xlink" width="233.203125" height="200"><path d="M598.147197 1023.999809a502.103431 502.103431 0 0 1-437.023028-256.212276C22.457995 523.520999 105.12253 210.255859 345.375295 68.913839a493.215798 493.215798 0 0 1 380.256861-51.796737 501.338903 501.338903 0 0 1 307.913448 238.914841C1172.211777 500.585174 1089.451676 814.041446 849.294478 955.670164a494.36259 494.36259 0 0 1-251.147281 68.329645zM596.618142 47.793767a447.344149 447.344149 0 0 0-227.064665 62.308991C151.663141 238.065547 76.452749 522.469774 202.695351 744.182747a453.938199 453.938199 0 0 0 278.670271 216.552412 446.006226 446.006226 0 0 0 344.037372-46.731743C1042.911065 786.040627 1118.121457 501.540834 991.974421 279.827861A454.416028 454.416028 0 0 0 596.618142 47.793767z" p-id="1519"></path><path d="M245.604457 419.831958a23.50922 23.50922 0 0 1-7.263011-1.146791 23.891484 23.891484 0 0 1-15.577248-30.007704 396.789768 396.789768 0 0 1 177.56151-223.050896 385.417422 385.417422 0 0 1 228.020325-52.465699 23.891484 23.891484 0 0 1-1.624621 47.782968h-2.102451a338.685679 338.685679 0 0 0-200.115071 46.062781 349.102366 349.102366 0 0 0-156.15474 196.101302 23.891484 23.891484 0 0 1-22.744693 16.724039zM212.060813 935.31462a351.395949 351.395949 0 0 1-90.405376-10.607819C73.012376 911.614268 38.226375 887.053822 18.061962 851.789991c-40.711089-71.770018-12.041308-175.554625 80.753216-292.3362a23.98705 23.98705 0 1 1 37.461847 29.816573C57.339562 688.085542 29.62544 775.337242 59.633144 828.185205c13.474797 23.795918 38.226375 40.711089 74.445865 50.363248 127.102696 34.021473 360.379147-30.007704 580.467498-159.21285 321.96164-189.029422 477.829683-423.357099 420.490121-523.5102-29.338743-51.605606-114.679124-70.814359-234.805506-52.656831a23.891484 23.891484 0 1 1-7.167445-47.591837c142.679943-21.597902 243.310874 5.447258 283.544134 76.45275 79.03303 139.335135-113.245635 397.745428-437.883122 588.303905-189.602818 111.525448-384.557329 174.98123-526.663876 174.98123z" p-id="1520"></path><path d="M626.721412 160.84827a23.891484 23.891484 0 1 1 23.891484-23.891484 23.891484 23.891484 0 0 1-23.98705 23.891484z" p-id="1521"></path></svg>