<?xml version="1.0" standalone="no"?><!DOCTYPE svg PUBLIC "-//W3C//DTD SVG 1.1//EN" "http://www.w3.org/Graphics/SVG/1.1/DTD/svg11.dtd"><svg t="1708614876695" class="icon" viewBox="0 0 1162 1024" version="1.1" xmlns="http://www.w3.org/2000/svg" p-id="1075" xmlns:xlink="http://www.w3.org/1999/xlink" width="226.953125" height="200"><path d="M581.05383 1024a23.914447 23.914447 0 0 1-17.863804-7.971482l-557.043341-623.024165a24.106531 24.106531 0 0 1-1.920839-29.676964L247.980329 10.373203A23.722363 23.722363 0 0 1 267.764971 0.000672h626.577717a23.914447 23.914447 0 0 1 19.784643 10.372531l243.754482 352.954186a24.106531 24.106531 0 0 1-1.920839 29.676964l-557.043341 623.024165a23.914447 23.914447 0 0 1-17.863803 7.971482zM54.551831 375.044508l526.501999 588.92927 526.501999-588.92927L881.761192 48.02165H280.346468z" p-id="1076"></path><path d="M581.05383 834.221096a23.914447 23.914447 0 0 1-17.863804-8.259608L165.768415 381.767445a24.106531 24.106531 0 0 1-1.920839-29.676964l144.062933-208.699169a24.010489 24.010489 0 0 1 19.784643-10.372532h506.717356a24.010489 24.010489 0 0 1 19.688601 10.372532l144.062933 208.699169a24.106531 24.106531 0 0 1-1.920839 29.676964L598.917633 825.961488a23.914447 23.914447 0 0 1-17.863803 8.259608z m-366.88027-470.605581l366.88027 410.579359 366.880269-410.291233-126.199129-182.479715H340.37269z" p-id="1077"></path><path d="M581.05383 583.551593a23.818405 23.818405 0 0 1-19.208391-9.604196l-60.506432-79.714823-79.906907-60.602473a24.106531 24.106531 0 0 1 0-38.416783l79.906907-60.602473 60.602474-79.906907a24.010489 24.010489 0 0 1 38.416782 0l60.602474 79.906907 79.906906 60.602473a24.010489 24.010489 0 0 1 0 38.416783l-80.09899 60.602473-60.602474 79.810865a23.818405 23.818405 0 0 1-19.112349 9.508154z m-105.646151-169.033842l57.625173 43.410964a23.338195 23.338195 0 0 1 4.610014 4.610014l43.507006 57.625173 43.507005-57.625173a23.338195 23.338195 0 0 1 4.610014-4.610014l57.625174-43.410964-57.625174-43.507005a23.338195 23.338195 0 0 1-4.610014-4.610014l-43.507005-57.625173-43.507006 57.625173a23.338195 23.338195 0 0 1-4.610014 4.610014z" p-id="1078"></path></svg>