<?xml version="1.0" standalone="no"?><!DOCTYPE svg PUBLIC "-//W3C//DTD SVG 1.1//EN" "http://www.w3.org/Graphics/SVG/1.1/DTD/svg11.dtd"><svg t="1708614861662" class="icon" viewBox="0 0 1024 1024" version="1.1" xmlns="http://www.w3.org/2000/svg" p-id="929" xmlns:xlink="http://www.w3.org/1999/xlink" width="200" height="200"><path d="M629.048609 784.320427H391.761559a21.53271 21.53271 0 0 1-15.978638-6.750334A505.078772 505.078772 0 0 1 499.596005 2.905207a21.190921 21.190921 0 0 1 21.361816 0 507.044059 507.044059 0 0 1 252.58211 437.575434A504.138852 504.138852 0 0 1 644.856352 777.570093a21.361816 21.361816 0 0 1-15.807743 6.750334z m-227.631509-42.723631H619.222174a461.41522 461.41522 0 0 0 111.594125-301.116155 464.405874 464.405874 0 0 0-220.453939-394.253672 462.440587 462.440587 0 0 0-108.94526 695.369827z" p-id="930"></path><path d="M164.984523 725.789052a21.361816 21.361816 0 0 1-17.089452-8.544726 167.305741 167.305741 0 0 1 117.148197-265.99733 21.361816 21.361816 0 0 1 23.497998 19.909212 363.150868 363.150868 0 0 0 24.181575 108.859813 21.447263 21.447263 0 0 1-14.782376 28.539386 160.811749 160.811749 0 0 0-112.70494 102.536716 21.447263 21.447263 0 0 1-17.089453 14.184245 20.763685 20.763685 0 0 1-3.161549 0.512684z m83.225635-227.973298A124.154873 124.154873 0 0 0 157.806953 617.698264a125.863818 125.863818 0 0 0 6.23765 39.134847 200.971963 200.971963 0 0 1 101.16956-82.883845 400.320427 400.320427 0 0 1-17.004005-76.133512zM859.072641 725.789052a19.99466 19.99466 0 0 1-3.246996 0 21.361816 21.361816 0 0 1-17.089453-14.184246 160.811749 160.811749 0 0 0-112.70494-102.536715A21.276368 21.276368 0 0 1 712.188796 598.130841a20.849132 20.849132 0 0 1-0.93992-17.602136A365.714286 365.714286 0 0 0 735.430451 471.668892a21.361816 21.361816 0 0 1 23.497998-19.909212 167.305741 167.305741 0 0 1 117.319092 265.313751 21.361816 21.361816 0 0 1-17.1749 8.715621zM758.843001 573.949266a200.373832 200.373832 0 0 1 101.084112 82.883845 124.582109 124.582109 0 0 0-84.080106-159.017357 400.320427 400.320427 0 0 1-17.004006 76.133512zM604.781586 885.233645H415.77224a55.455274 55.455274 0 0 1-55.369826-55.455274v-32.811749a55.369826 55.369826 0 0 1 55.369826-55.369826h189.009346a55.455274 55.455274 0 0 1 55.455274 55.369826v32.811749a55.540721 55.540721 0 0 1-55.455274 55.455274zM415.77224 784.320427a12.817089 12.817089 0 0 0-12.646195 12.646195v32.811749a12.817089 12.817089 0 0 0 12.646195 12.731642h189.009346a12.902537 12.902537 0 0 0 12.731642-12.731642v-32.811749a12.817089 12.817089 0 0 0-12.731642-12.646195zM510.276913 413.479306a109.88518 109.88518 0 1 1 109.970628-109.88518 110.056075 110.056075 0 0 1-109.970628 109.88518z m0-177.046729a67.161549 67.161549 0 1 0 67.246996 67.161549 67.246996 67.246996 0 0 0-67.246996-67.161549zM510.276913 657.943925a21.361816 21.361816 0 0 1-21.361816-21.361816V488.245661a21.361816 21.361816 0 0 1 42.723632 0v147.909212a21.361816 21.361816 0 0 1-21.361816 21.789052zM416.883055 992.213618a21.276368 21.276368 0 0 1-21.361816-21.361816v-52.550066a21.361816 21.361816 0 0 1 42.723631 0v52.550066a21.276368 21.276368 0 0 1-21.361815 21.361816zM510.276913 1024a21.361816 21.361816 0 0 1-21.361816-21.361816v-84.336448a21.361816 21.361816 0 0 1 42.723632 0v84.336448a21.361816 21.361816 0 0 1-21.361816 21.361816zM603.670772 992.213618a21.276368 21.276368 0 0 1-21.361816-21.361816v-52.550066a21.361816 21.361816 0 0 1 42.723631 0v52.550066a21.276368 21.276368 0 0 1-21.361815 21.361816z" p-id="931"></path></svg>